<?xml version="1.0" encoding="utf-8"?>
<!-- Generator: Adobe Illustrator 18.1.0, SVG Export Plug-In . SVG Version: 6.00 Build 0)  -->
<svg version="1.1" id="Layer_1" xmlns="http://www.w3.org/2000/svg" xmlns:xlink="http://www.w3.org/1999/xlink" x="0px" y="0px"
	 viewBox="0 0 432.8 55.5" style="enable-background:new 0 0 432.8 55.5;" xml:space="preserve">
<style type="text/css">
	.st0{fill:#C8B2C0;}
	.st1{fill:#AAD9BD;}
	.st2{fill:#FFFCD7;}
	.st3{fill:#7DB8AE;}
	.st4{fill:#D87981;}
	.st5{fill:#A4ABB6;}
	.st6{fill:#9C8C91;}
	.st7{fill:#9FCCC5;}
	.st8{fill:#E4E5E6;}
	.st9{fill:#F58870;}
	.st10{fill:#74C0EB;}
	.st11{fill:#F2E3A5;}
	.st12{fill:#7B8FBC;}
	.st13{fill:#C2C4C6;}
	.st14{fill:#4EAB9D;}
	.st15{fill:#B68D9D;}
	.st16{fill:none;stroke:#000000;stroke-width:0.25;stroke-miterlimit:10;}
</style>
<g>
	<g id="XMLID_1_">
		<g>
			<polygon class="st0" points="432.5,0.2 428.5,54 411.7,25.6 			"/>
			<polygon class="st1" points="432.5,0.2 411.7,25.6 407.4,18.1 			"/>
			<polygon class="st2" points="432.5,0.2 407.4,18.1 405.1,14.4 			"/>
			<polygon class="st1" points="411.7,25.6 428.5,54 406.5,32 			"/>
			<polygon class="st2" points="406.4,32.2 412.8,54 396.9,43.6 			"/>
			<polygon class="st2" points="407.4,18.1 411.7,25.6 406.5,32 406.3,31.9 403.1,21.1 			"/>
			<polygon class="st3" points="407.4,18.1 403.1,21.1 401.6,16.2 405.1,14.4 			"/>
			<polygon class="st1" points="406.3,31.9 406.4,32.2 396.9,43.6 390.6,39.5 392.4,28.7 398.7,24.3 			"/>
			<polygon class="st0" points="403.1,21.1 406.3,31.9 398.7,24.3 			"/>
			<polygon class="st4" points="405.1,14.4 401.6,16.2 397.1,0.8 			"/>
			<polygon class="st5" points="403.1,21.1 398.7,24.3 394.3,20 401.6,16.2 			"/>
			<polygon class="st3" points="397.1,0.8 401.6,16.2 394.3,20 393.9,19.6 			"/>
			<polygon class="st4" points="398.7,24.3 392.4,28.7 393.8,20.2 394.3,20 			"/>
			<polygon class="st1" points="374.5,0.2 393.9,19.6 393.8,20.2 381.4,26.6 			"/>
			<polygon class="st2" points="393.8,20.2 392.4,28.7 383.7,34.9 383.5,34.8 381.4,26.6 			"/>
			<polygon class="st4" points="392.4,28.7 390.6,39.5 383.7,34.9 			"/>
			<polygon class="st5" points="390.6,39.5 388.5,52.4 388.1,52.5 383.5,35 383.7,34.9 			"/>
			<polygon class="st0" points="388.5,52.4 390.6,39.5 396.9,43.6 388.5,54 388.1,52.5 			"/>
			<polygon class="st4" points="388.1,52.5 388.5,54 379.5,37.9 383.5,35 			"/>
			<polygon class="st1" points="379.5,37.9 388.5,54 372.2,43.1 			"/>
			<polygon class="st6" points="383.5,34.8 383.5,35 379.5,37.9 375,29.9 375.5,29.6 			"/>
			<polygon class="st7" points="381.4,26.6 383.5,34.8 375.5,29.6 			"/>
			<polygon class="st0" points="374.5,0.2 381.4,26.6 375.5,29.6 374.5,29 374.5,29 368.6,18.3 374.3,0.8 			"/>
			<polygon class="st3" points="379.5,37.9 372.2,43.1 362.6,36.6 362.7,36.3 375,29.9 			"/>
			<polygon class="st5" points="374.5,29 374.5,29 375,29.9 362.7,36.3 368.6,18.3 			"/>
			<polygon class="st4" points="374.3,0.8 368.6,18.3 363.6,9.4 374.1,0.8 			"/>
			<polygon class="st7" points="362.6,36.6 372.2,43.1 356.9,54 			"/>
			<polygon class="st1" points="368.6,18.3 362.7,36.3 362.4,36.5 345,24.9 363.6,9.4 			"/>
			<polygon class="st3" points="358.5,0.2 363.6,9.4 345,24.9 344.8,24.7 			"/>
			<polygon class="st0" points="362.4,36.5 362.6,36.6 356.9,54 350.8,42.4 			"/>
			<polygon class="st2" points="345,24.9 362.4,36.5 350.8,42.4 343,27.8 344.5,25.3 			"/>
			<polygon class="st0" points="358.5,0.2 344.8,24.7 339.5,21.1 337.1,16.6 			"/>
			<polygon class="st4" points="358.5,0.2 337.1,16.6 334.1,11 			"/>
			<polygon class="st6" points="350.8,42.4 356.9,54 347.9,43.9 			"/>
			<polygon class="st6" points="347.9,43.9 356.9,54 343.6,46.1 			"/>
			<polygon class="st4" points="343,27.8 350.8,42.4 347.9,43.9 339.4,34.4 			"/>
			<polygon class="st1" points="339.4,34.4 347.9,43.9 343.6,46.1 335.5,41.3 			"/>
			<polygon class="st8" points="344.8,24.7 344.5,25.3 342.6,26.9 339.5,21.1 			"/>
			<polygon class="st9" points="344.5,25.3 343,27.8 342.6,26.9 			"/>
			<polygon class="st2" points="335.5,41.3 343.6,46.1 328.4,54 			"/>
			<polygon class="st7" points="342.6,26.9 343,27.8 339.4,34.4 336.8,31.6 			"/>
			<polygon class="st3" points="342.6,26.9 336.8,31.6 329,22.9 335.1,18.2 339.5,21.1 			"/>
			<polygon class="st1" points="339.5,21.1 335.1,18.2 337.1,16.6 			"/>
			<polygon class="st5" points="339.4,34.4 335.5,41.3 329.5,37.8 336.8,31.6 			"/>
			<polygon class="st6" points="334.1,11 337.1,16.6 335.1,18.2 328.4,13.7 328.4,13.5 			"/>
			<polygon class="st10" points="336.8,31.6 329.5,37.8 328.4,37.2 328.4,23.3 329,22.9 			"/>
			<polygon class="st10" points="335.5,41.3 328.4,54 328.4,37.2 329.5,37.8 			"/>
			<polygon class="st10" points="335.1,18.2 329,22.9 328.4,22.3 328.4,13.7 			"/>
			<polygon class="st10" points="328.4,0.2 334.1,11 328.4,13.5 			"/>
			<polygon class="st11" points="328.4,37.2 328.4,54 313.7,34.5 318.2,31.1 			"/>
			<polygon class="st6" points="328.4,23.3 328.4,37.2 318.2,31.1 			"/>
			<polygon class="st2" points="328.4,22.3 328.4,23.3 318.2,31.1 305.5,23.6 322.8,16 			"/>
			<polygon class="st1" points="328.4,13.7 328.4,22.3 322.8,16 328.2,13.6 			"/>
			<polygon class="st4" points="328.4,0.2 328.4,13.5 328.2,13.6 318.6,7.2 			"/>
			<polygon class="st4" points="313.7,34.5 328.4,54 310.2,37.2 			"/>
			<polygon class="st10" points="328.4,54 299.4,45.5 310.2,37.2 			"/>
			<polygon class="st0" points="328.2,13.6 322.8,16 316.3,8.8 318.6,7.2 			"/>
			<polygon class="st3" points="322.8,16 305.5,23.6 301.9,19 316.3,8.8 			"/>
			<polygon class="st12" points="309.1,0.8 318.6,7.2 316.3,8.8 			"/>
			<polygon class="st1" points="305.5,23.6 318.2,31.1 313.7,34.5 			"/>
			<polygon class="st0" points="305.5,23.6 313.7,34.5 310.2,37.2 298.7,26.6 			"/>
			<polygon class="st5" points="310.2,37.2 299.4,45.5 292.4,43.5 298.7,26.6 			"/>
			<polygon class="st1" points="309.1,0.8 309.1,0.8 316.3,8.8 301.9,19 301.7,18.7 308.6,0.2 			"/>
			<polygon class="st7" points="308.6,0.2 295.5,10.5 291.4,5.2 			"/>
			<polygon class="st4" points="308.6,0.2 301.7,18.7 301.7,18.7 295.5,10.5 			"/>
			<polygon class="st4" points="301.7,18.7 301.7,18.7 301.5,19.2 301.5,19.3 295.4,23.6 293.8,22.1 			"/>
			<polygon class="st6" points="301.7,18.7 293.8,22.1 287.9,16.7 287.9,16.4 295.5,10.5 			"/>
			<polygon class="st10" points="301.9,19 305.5,23.6 298.7,26.6 301.5,19.3 301.5,19.2 			"/>
			<polygon class="st7" points="299.4,45.5 288.4,54 292.4,43.5 			"/>
			<polygon class="st12" points="295.4,23.6 301.5,19.3 298.7,26.6 			"/>
			<polygon class="st1" points="298.7,26.6 292.4,43.5 288.2,42.2 288.1,28.7 295.4,23.6 			"/>
			<polygon class="st1" points="295.5,10.5 287.9,16.4 287.8,6.2 291.4,5.2 			"/>
			<polygon class="st9" points="295.4,23.6 288.1,28.7 288,24.7 293.8,22.1 			"/>
			<polygon class="st10" points="293.8,22.1 288,24.7 287.9,16.7 			"/>
			<polygon class="st10" points="288.2,42.2 292.4,43.5 288.4,54 			"/>
			<polygon class="st12" points="287.7,0.2 291.4,5.2 287.8,6.2 			"/>
			<polygon class="st9" points="288.2,42.2 288.4,54 283.1,40.8 			"/>
			<polygon class="st5" points="283.1,40.8 288.4,54 271.1,40.7 274.5,38.2 			"/>
			<polygon class="st0" points="288.4,54 264.9,45.1 271.1,40.7 			"/>
			<polygon class="st12" points="288.1,28.7 288.2,42.2 283.1,40.8 280.4,34.1 			"/>
			<polygon class="st0" points="288,24.7 288.1,28.7 280.4,34.1 278.4,29 			"/>
			<polygon class="st3" points="287.9,16.7 288,24.7 278.4,29 276.8,25 287.7,16.5 			"/>
			<polygon class="st7" points="287.7,0.2 287.8,6.2 271.1,10.9 271.1,10.8 			"/>
			<polygon class="st2" points="271.1,10.9 287.8,6.2 287.9,16.4 287.7,16.5 276.8,25 			"/>
			<polygon class="st10" points="280.4,34.1 283.1,40.8 274.5,38.2 			"/>
			<polygon class="st4" points="278.4,29 280.4,34.1 274.5,38.2 264.2,35.2 			"/>
			<polygon class="st0" points="276.8,25 278.4,29 264.2,35.2 263.8,35.1 			"/>
			<polygon class="st1" points="271.1,10.9 276.8,25 263.8,35.1 263.8,35.2 258.5,31.1 262.7,16.1 270.7,11.1 			"/>
			<polygon class="st12" points="274.5,38.2 271.1,40.7 264,35.3 264.2,35.2 			"/>
			<polygon class="st12" points="270.7,11.1 262.7,16.1 263.5,13.1 			"/>
			<polygon class="st4" points="267,0.2 266.4,0.8 266.4,0.8 237.7,10 236.3,7.6 			"/>
			<polygon class="st1" points="270.7,11.1 263.5,13.1 266.9,0.7 267,0.8 271.1,10.8 			"/>
			<polygon class="st5" points="266.4,0.8 267,0.2 266.9,0.7 263.5,13.1 242.9,19 266.4,0.8 			"/>
			<polygon class="st0" points="266.4,0.8 242.9,19 242.8,19 237.7,10 			"/>
			<polygon class="st10" points="255.7,41.5 258.5,31.1 263.8,35.2 263.1,35.7 263.1,35.7 			"/>
			<polygon class="st2" points="262.7,16.1 258.5,31.1 249.7,24.4 			"/>
			<polygon class="st2" points="255.7,41.6 264.9,45.1 252.2,54 			"/>
			<polygon class="st5" points="249.7,24.4 258.5,31.1 255.7,41.5 246.9,26.1 			"/>
			<polygon class="st6" points="255.7,41.6 255.7,41.5 263.1,35.7 263.1,35.7 264,35.3 271.1,40.7 264.9,45.1 			"/>
			<polygon class="st1" points="246.9,26.1 255.7,41.5 255.5,41.5 234.9,33.8 			"/>
			<polygon class="st1" points="255.7,41.6 252.2,54 238.6,45.1 255.5,41.5 			"/>
			<polygon class="st4" points="255.5,41.5 238.6,45.1 227.9,38.2 234.9,33.8 			"/>
			<polygon class="st6" points="252.2,54 228,47.3 234.6,45.9 			"/>
			<polygon class="st9" points="252.2,54 234.6,45.9 238.6,45.1 			"/>
			<polygon class="st4" points="243.2,19.4 249.7,24.4 246.9,26.1 243.1,19.5 			"/>
			<polygon class="st0" points="246.9,26.1 234.9,33.8 227.9,31.1 227.9,30.6 242.8,19 243.1,19.5 			"/>
			<polygon class="st3" points="243.2,19.4 243.1,19.5 242.8,19 242.9,19 263.5,13.1 262.7,16.1 249.7,24.4 			"/>
			<polygon class="st2" points="242.8,19 225.6,23.9 228.8,12.9 237.7,10 			"/>
			<polygon class="st5" points="238.6,45.1 234.6,45.9 227.9,42.9 227.9,38.2 			"/>
			<polygon class="st10" points="237.7,10 228.8,12.9 229.8,9.2 236.3,7.6 			"/>
			<polygon class="st6" points="232.4,0.8 236.3,7.6 229.8,9.2 232.3,0.7 			"/>
			<polygon class="st10" points="234.9,33.8 227.9,38.2 227.9,31.1 			"/>
			<polygon class="st4" points="234.6,45.9 228,47.3 227.9,47.3 227.9,42.9 			"/>
			<polygon class="st4" points="232.4,0.2 232.3,0.7 229.8,9.2 227.9,9.7 			"/>
			<polygon class="st1" points="229.8,9.2 228.8,12.9 227.9,13.2 226.6,12.4 227.9,9.7 			"/>
			<polygon class="st12" points="227.9,13.2 228.8,12.9 225.6,23.9 220.4,25.4 225.9,13.9 			"/>
			<polygon class="st11" points="227.9,9.7 226.6,12.4 223.6,10.7 			"/>
			<polygon class="st0" points="228,47.3 198.1,53.7 211.9,43 227.9,47.3 			"/>
			<polygon class="st2" points="227.9,42.9 227.9,47.3 211.9,43 211.9,43 217.9,38.3 			"/>
			<polygon class="st1" points="227.9,30.6 227.4,30.9 224,29.6 225.6,23.9 242.8,19 242.8,19 			"/>
			<polygon class="st4" points="227.9,13.2 225.9,13.9 226.6,12.4 			"/>
			<polygon class="st12" points="227.9,38.2 227.9,42.9 217.9,38.3 222.5,34.8 			"/>
			<polygon class="st0" points="227.4,30.9 222.5,34.8 224,29.6 			"/>
			<polygon class="st9" points="227.4,30.9 227.9,31.1 227.9,38.2 222.5,34.8 			"/>
			<polygon class="st0" points="226.6,12.4 225.9,13.9 214.3,17.6 212.3,13.4 223.6,10.7 			"/>
			<polygon class="st10" points="225.9,13.9 220.4,25.4 218.3,26 214.3,17.6 			"/>
			<polygon class="st9" points="225.6,23.9 224,29.6 219.2,27.8 219.2,27.8 220.4,25.4 			"/>
			<polygon class="st4" points="224,29.6 222.5,34.8 219.2,27.8 			"/>
			<polygon class="st1" points="223.6,10.7 212.3,13.4 206,0.2 			"/>
			<polygon class="st5" points="219.2,27.8 222.5,34.8 217.4,31.5 219.2,27.8 			"/>
			<polygon class="st10" points="222.5,34.8 217.9,38.3 214.8,36.9 217.4,31.5 			"/>
			<polygon class="st11" points="220.4,25.4 219.2,27.8 218.3,26 			"/>
			<polygon class="st8" points="218.3,26 219.2,27.8 219.2,27.8 216,26.6 			"/>
			<polygon class="st1" points="219.2,27.8 217.4,31.5 211.8,27.8 216,26.6 			"/>
			<polygon class="st5" points="214.3,17.6 218.3,26 216,26.6 203.2,21.8 203,21.2 			"/>
			<polygon class="st4" points="217.9,38.3 211.9,43 214.8,36.9 			"/>
			<polygon class="st9" points="217.4,31.5 214.8,36.9 208.2,33.9 206.4,29.4 211.8,27.8 			"/>
			<polygon class="st9" points="216,26.6 211.8,27.8 203.5,22.5 203.2,21.8 			"/>
			<polygon class="st11" points="214.8,36.9 211.9,43 208.2,33.9 			"/>
			<polygon class="st12" points="212.3,13.4 214.3,17.6 203,21.2 202.9,20.9 203.7,15.5 			"/>
			<polygon class="st4" points="206,0.2 212.3,13.4 203.7,15.5 			"/>
			<polygon class="st4" points="211.9,43 211.9,43 199.9,39.7 201.3,30.8 208.2,33.9 			"/>
			<polygon class="st6" points="211.9,43 198.1,53.7 197.8,53.8 199.9,39.7 			"/>
			<polygon class="st0" points="211.8,27.8 206.4,29.4 203.5,22.5 			"/>
			<polygon class="st7" points="208.2,33.9 201.3,30.8 201.3,30.8 206.4,29.4 			"/>
			<polygon class="st1" points="203.5,22.5 206.4,29.4 201.3,30.8 202.7,21.9 			"/>
			<polygon class="st0" points="206,0.2 203.7,15.5 195.7,17.4 189.6,13.5 			"/>
			<polygon class="st6" points="203.7,15.5 202.9,20.9 202.8,21.3 202.1,21.5 195.7,17.4 			"/>
			<polygon class="st2" points="202.1,21.5 189.7,25.5 180.3,21.2 180.2,21.1 195.7,17.4 			"/>
			<polygon class="st5" points="201.3,30.8 199.9,39.7 188.5,36.6 183.6,27.5 189.7,25.5 201.3,30.8 			"/>
			<polygon class="st4" points="189.7,25.5 202.1,21.5 202.7,21.9 201.3,30.8 201.3,30.8 			"/>
			<polygon class="st3" points="188.5,36.6 199.9,39.7 197.8,53.8 197.7,53.8 			"/>
			<polygon class="st1" points="188.5,36.6 197.7,53.8 197.6,53.8 164.8,33.6 164.8,33.6 164.8,33.6 170.6,31.7 			"/>
			<polygon class="st5" points="189.6,13.5 195.7,17.4 180.2,21.1 180.2,21.1 			"/>
			<polygon class="st7" points="189.7,25.5 183.6,27.5 180.3,21.2 			"/>
			<polygon class="st3" points="189.6,13.5 180.2,21.1 169.1,0.2 			"/>
			<polygon class="st4" points="183.6,27.5 188.5,36.6 170.6,31.7 			"/>
			<polygon class="st0" points="180.3,21.2 183.6,27.5 170.6,31.7 168,31 180.1,21.2 180.2,21.2 			"/>
			<polygon class="st2" points="169.1,0.2 180.2,21.1 180.2,21.2 180.1,21.2 165.9,24.6 			"/>
			<polygon class="st7" points="180.1,21.2 168,31 165.2,30.2 165.9,24.6 			"/>
			<polygon class="st10" points="170.6,31.7 164.8,33.6 168,31 			"/>
			<polygon class="st0" points="169.1,0.2 165.9,24.6 154.6,27.3 154.3,27.2 			"/>
			<polygon class="st1" points="169.1,0.2 154.3,27.2 132.9,14 			"/>
			<polygon class="st12" points="168,31 164.8,33.6 164.8,33.6 165.2,30.2 			"/>
			<polygon class="st4" points="165.9,24.6 165.2,30.2 154.6,27.4 154.6,27.3 			"/>
			<polygon class="st10" points="164.8,33.6 154.6,27.4 165.2,30.2 164.8,33.6 			"/>
			<polygon class="st2" points="164.8,33.6 139.6,54 154.2,27.4 154.5,27.3 154.6,27.4 			"/>
			<polygon class="st0" points="154.3,27.2 154.3,27.3 121.5,18.3 132.9,14 			"/>
			<polygon class="st3" points="154.3,27.3 154.2,27.4 128.6,33.6 120.6,18.7 121.5,18.3 			"/>
			<polygon class="st0" points="154.2,27.4 139.6,54 128.6,33.6 			"/>
			<polygon class="st4" points="128.6,33.6 139.6,54 111.9,37.6 			"/>
			<polygon class="st2" points="139.6,54 95.8,41.5 95.8,41.5 111.9,37.6 			"/>
			<polygon class="st1" points="120.6,18.7 128.6,33.6 111.9,37.6 104.4,33.2 118.8,19.3 			"/>
			<polygon class="st2" points="110.7,0.2 132.9,14 121.5,18.3 120.2,18 			"/>
			<polygon class="st0" points="120.2,18 118.8,19.3 95.8,28.1 95.8,28 110.7,0.2 			"/>
			<polygon class="st4" points="118.8,19.3 104.4,33.2 95.8,28.1 			"/>
			<polygon class="st7" points="111.9,37.6 95.8,41.5 104.4,33.2 			"/>
			<polygon class="st8" points="110.7,0.2 95.8,28 87.2,22.9 			"/>
			<polygon class="st13" points="110.7,0.2 87.2,22.9 65.5,10.1 			"/>
			<polygon class="st7" points="95.8,28 95.8,28.1 75.6,35.7 75.1,34.5 87.2,22.9 			"/>
			<polygon class="st2" points="95.8,28.1 89.6,39.7 75.6,35.7 			"/>
			<polygon class="st3" points="95.8,41.5 95.8,41.5 89.6,39.7 95.8,28.1 95.8,28.1 104.4,33.2 			"/>
			<polygon class="st1" points="89.6,39.7 82.8,52.4 82.3,52.6 75.6,35.7 			"/>
			<polygon class="st14" points="87.2,22.9 75.1,34.5 65.5,10.1 65.5,10.1 			"/>
			<polygon class="st7" points="82.8,52.4 89.6,39.7 95.8,41.5 82.8,54 82.3,52.6 			"/>
			<polygon class="st4" points="65.5,10.1 75.1,34.5 74.3,35.3 60.4,31.4 			"/>
			<polygon class="st13" points="60.4,31.4 74.3,35.3 55,54 			"/>
			<polygon class="st2" points="65.5,10.1 60.4,31.4 43.3,26.5 43,25.7 65.5,10.1 			"/>
			<polygon class="st8" points="65.5,10.1 65.5,10.1 38.8,16 32.1,0.2 			"/>
			<polygon class="st0" points="65.5,10.1 43,25.7 38.8,16 			"/>
			<polygon class="st7" points="43.3,26.5 60.4,31.4 55,54 			"/>
			<polygon class="st11" points="43.3,26.5 55,54 33.1,32.5 42.2,26.2 			"/>
			<polygon class="st3" points="38.8,16 43,25.7 42.2,26.2 20.7,20.1 20.8,19.9 			"/>
			<polygon class="st13" points="42.2,26.2 33.1,32.5 20.6,20.3 20.7,20.1 			"/>
			<polygon class="st6" points="32.1,0.2 38.8,16 20.8,19.9 			"/>
			<polygon class="st15" points="20.6,20.3 33.1,32.5 24.4,38.6 20.5,20.5 			"/>
			<polygon class="st15" points="24.4,38.6 27.6,54 21,41 			"/>
			<polygon class="st13" points="24.4,38.6 21,41 15.2,29.7 20.5,20.5 			"/>
			<polygon class="st3" points="21,41 0.8,54.9 15.2,29.7 			"/>
			<polygon class="st11" points="20.4,20 20.5,20.5 15.2,29.7 0.2,0.2 20.4,20 			"/>
		</g>
		<g>
			<polyline class="st16" points="20.4,20 20.6,20.3 33.1,32.5 55,54 			"/>
			<line class="st16" x1="0.2" y1="0.2" x2="20.4" y2="20"/>
			<polyline class="st16" points="0.8,54.9 15.2,29.7 20.5,20.5 20.6,20.3 20.7,20.1 20.8,19.9 32.1,0.2 			"/>
			<polyline class="st16" points="32.1,0.2 38.8,16 43,25.7 43.3,26.5 55,54 			"/>
			<polyline class="st16" points="20.4,20 20.8,19.9 38.8,16 65.5,10.1 65.5,10.1 65.5,10.1 110.7,0.2 			"/>
			<polyline class="st16" points="55,54 60.4,31.4 65.5,10.1 			"/>
			<polyline class="st16" points="20.4,20 20.7,20.1 42.2,26.2 43.3,26.5 60.4,31.4 74.3,35.3 75.6,35.7 89.6,39.7 95.8,41.5 
				139.6,54 			"/>
			<polyline class="st16" points="65.5,10.1 65.5,10.1 43,25.7 42.2,26.2 33.1,32.5 24.4,38.6 21,41 0.8,54.9 0.8,54.9 0.2,55.3 			
				"/>
			<line class="st16" x1="32.1" y1="0.2" x2="65.5" y2="10.1"/>
			<polyline class="st16" points="110.7,0.2 87.2,22.9 75.1,34.5 74.3,35.3 55,54 			"/>
			<polyline class="st16" points="65.5,10.1 65.5,10.1 87.2,22.9 95.8,28 95.8,28.1 104.4,33.2 111.9,37.6 139.6,54 			"/>
			<polyline class="st16" points="65.5,10.1 65.5,10.1 75.1,34.5 75.6,35.7 82.3,52.6 82.8,54 			"/>
			<polyline class="st16" points="82.8,52.4 89.6,39.7 95.8,28.1 95.8,28 110.7,0.2 			"/>
			<polyline class="st16" points="20.4,20 20.4,20 20.5,20.5 24.4,38.6 27.6,54 			"/>
			<polyline class="st16" points="110.7,0.2 120.2,18 120.6,18.7 128.6,33.6 139.6,54 			"/>
			<polyline class="st16" points="75.6,35.7 95.8,28.1 95.8,28.1 118.8,19.3 120.6,18.7 121.5,18.3 132.9,14 169.1,0.2 			"/>
			<polyline class="st16" points="120.2,18 118.8,19.3 104.4,33.2 95.8,41.5 95.8,41.5 82.8,54 			"/>
			<polyline class="st16" points="139.6,54 154.2,27.4 154.3,27.3 154.3,27.2 169.1,0.2 			"/>
			<polyline class="st16" points="110.7,0.2 132.9,14 154.3,27.2 154.6,27.3 154.6,27.4 164.8,33.6 197.6,53.8 197.8,54 			"/>
			<polyline class="st16" points="180.2,21.2 180.2,21.1 195.7,17.4 203.7,15.5 212.3,13.4 223.6,10.7 227.9,9.7 229.8,9.2 
				236.3,7.6 267,0.2 			"/>
			<polyline class="st16" points="95.8,41.5 111.9,37.6 128.6,33.6 154.2,27.4 154.5,27.3 154.6,27.3 165.9,24.6 180.1,21.2 			"/>
			<polyline class="st16" points="120.2,18 121.5,18.3 154.3,27.3 154.5,27.3 154.6,27.4 165.2,30.2 168,31 170.6,31.7 188.5,36.6 
				199.9,39.7 211.9,43 227.9,47.3 228,47.3 252.2,54 			"/>
			<polyline class="st16" points="169.1,0.2 180.2,21.1 180.2,21.1 180.3,21.2 183.6,27.5 188.5,36.6 197.7,53.8 197.8,54 			"/>
			<polyline class="st16" points="180.2,21.2 180.2,21.1 189.6,13.5 206,0.2 			"/>
			<polyline class="st16" points="164.8,33.6 168,31 180.1,21.2 			"/>
			<polyline class="st16" points="139.6,54 164.8,33.6 164.8,33.6 			"/>
			<polyline class="st16" points="169.1,0.2 165.9,24.6 165.2,30.2 164.8,33.6 			"/>
			<polyline class="st16" points="169.1,0.2 189.6,13.5 195.7,17.4 202.1,21.5 202.7,21.9 203.5,22.5 211.8,27.8 217.4,31.5 
				222.5,34.8 227.9,38.2 238.6,45.1 252.2,54 			"/>
			<polyline class="st16" points="206,0.2 203.7,15.5 202.9,20.9 202.8,21.3 202.7,21.6 202.7,21.9 201.3,30.8 201.3,30.8 
				199.9,39.7 197.8,53.8 197.8,54 			"/>
			<line class="st16" x1="266.4" y1="0.8" x2="267" y2="0.2"/>
			<polyline class="st16" points="197.8,54 198.1,53.7 211.9,43 211.9,43 217.9,38.3 222.5,34.8 227.4,30.9 227.9,30.6 242.8,19 
				242.9,19 266.4,0.8 			"/>
			<polyline class="st16" points="206,0.2 212.3,13.4 214.3,17.6 218.3,26 219.2,27.8 219.2,27.8 222.5,34.8 			"/>
			<polyline class="st16" points="202.9,20.9 203,21.2 203.2,21.8 203.5,22.5 206.4,29.4 208.2,33.9 211.9,43 			"/>
			<polyline class="st16" points="180.1,21.2 180.2,21.2 180.3,21.2 189.7,25.5 201.3,30.8 201.3,30.8 208.2,33.9 214.8,36.9 
				217.9,38.3 227.9,42.9 234.6,45.9 252.2,54 			"/>
			<polyline class="st16" points="164.8,33.6 164.8,33.6 170.6,31.7 183.6,27.5 189.7,25.5 202.1,21.5 202.8,21.3 203,21.2 
				214.3,17.6 225.9,13.9 227.9,13.2 228.8,12.9 237.7,10 266.4,0.8 266.4,0.8 			"/>
			<polyline class="st16" points="222.5,34.8 224,29.6 225.6,23.9 228.8,12.9 229.8,9.2 232.3,0.7 232.4,0.2 			"/>
			<polyline class="st16" points="206,0.2 223.6,10.7 226.6,12.4 227.9,13.2 			"/>
			<polyline class="st16" points="232.4,0.2 227.9,9.7 226.6,12.4 225.9,13.9 220.4,25.4 219.2,27.8 219.2,27.8 217.4,31.5 
				214.8,36.9 211.9,43 			"/>
			<polyline class="st16" points="202.7,21.6 203.2,21.8 216,26.6 219.2,27.8 219.2,27.8 224,29.6 227.4,30.9 227.9,31.1 
				234.9,33.8 255.5,41.5 255.7,41.6 264.9,45.1 288.4,54 			"/>
			<polyline class="st16" points="252.2,54 255.7,41.6 255.7,41.5 258.5,31.1 262.7,16.1 263.5,13.1 266.9,0.7 267,0.2 			"/>
			<polyline class="st16" points="232.4,0.8 236.3,7.6 237.7,10 242.8,19 242.8,19 243.1,19.5 246.9,26.1 255.7,41.5 			"/>
			<polyline class="st16" points="201.3,30.8 201.3,30.8 206.4,29.4 211.8,27.8 216,26.6 218.3,26 220.4,25.4 225.6,23.9 242.8,19 
				242.9,19 263.5,13.1 270.7,11.1 271.1,10.9 287.8,6.2 291.4,5.2 308.6,0.2 			"/>
			<polyline class="st16" points="267,0.8 271.1,10.8 271.1,10.9 276.8,25 278.4,29 280.4,34.1 283.1,40.8 288.4,54 			"/>
			<polyline class="st16" points="197,54 197.6,53.8 197.7,53.8 197.8,53.8 198.1,53.7 228,47.3 234.6,45.9 238.6,45.1 255.5,41.5 
				255.7,41.5 			"/>
			<polyline class="st16" points="227.9,30.6 227.9,31.1 227.9,38.2 227.9,42.9 227.9,47.3 			"/>
			<line class="st16" x1="263.1" y1="35.7" x2="255.7" y2="41.5"/>
			<polyline class="st16" points="308.6,0.2 295.5,10.5 287.9,16.4 287.7,16.5 276.8,25 263.8,35.1 263.8,35.2 263.1,35.7 			"/>
			<polyline class="st16" points="243.2,19.4 249.7,24.4 258.5,31.1 263.8,35.2 264,35.3 271.1,40.7 288.4,54 			"/>
			<polyline class="st16" points="227.9,38.2 234.9,33.8 246.9,26.1 249.7,24.4 262.7,16.1 270.7,11.1 271.1,10.8 287.7,0.2 			"/>
			<polyline class="st16" points="287.7,0.2 287.8,6.2 287.9,16.4 287.9,16.7 288,24.7 288.1,28.7 288.2,42.2 288.4,54 			"/>
			<polyline class="st16" points="263.8,35.1 264.2,35.2 274.5,38.2 283.1,40.8 288.2,42.2 292.4,43.5 299.4,45.5 328.4,54 			"/>
			<polyline class="st16" points="328.4,54 313.7,34.5 305.5,23.6 301.9,19 301.7,18.7 301.7,18.7 295.5,10.5 291.4,5.2 287.7,0.2 
							"/>
			<polyline class="st16" points="301.5,19.3 298.7,26.6 292.4,43.5 288.4,54 			"/>
			<polyline class="st16" points="308.6,0.2 301.7,18.7 301.5,19.2 			"/>
			<polyline class="st16" points="263.1,35.7 263.1,35.7 264,35.3 264.2,35.2 278.4,29 288,24.7 293.8,22.1 301.7,18.7 			"/>
			<polyline class="st16" points="252.2,54 264.9,45.1 271.1,40.7 274.5,38.2 280.4,34.1 288.1,28.7 295.4,23.6 301.5,19.3 
				301.5,19.2 301.9,19 316.3,8.8 318.6,7.2 328.4,0.2 			"/>
			<polyline class="st16" points="328.4,0.2 328.4,13.5 328.4,13.7 328.4,22.3 328.4,23.3 328.4,37.2 328.4,54 			"/>
			<polyline class="st16" points="287.7,16.5 287.9,16.7 293.8,22.1 295.4,23.6 298.7,26.6 310.2,37.2 328.4,54 			"/>
			<polyline class="st16" points="309.1,0.8 316.3,8.8 322.8,16 328.4,22.3 329,22.9 336.8,31.6 339.4,34.4 347.9,43.9 356.9,54 			
				"/>
			<line class="st16" x1="308.6" y1="0.2" x2="309.1" y2="0.8"/>
			<polyline class="st16" points="288.4,54 299.4,45.5 310.2,37.2 313.7,34.5 318.2,31.1 328.4,23.3 329,22.9 335.1,18.2 
				337.1,16.6 358.5,0.2 			"/>
			<polyline class="st16" points="298.7,26.6 305.5,23.6 322.8,16 328.2,13.6 328.4,13.5 334.1,11 358.5,0.2 			"/>
			<polyline class="st16" points="309.1,0.8 309.1,0.8 318.6,7.2 328.2,13.6 328.4,13.7 335.1,18.2 339.5,21.1 344.8,24.7 345,24.9 
				362.4,36.5 362.6,36.6 372.2,43.1 388.5,54 			"/>
			<polyline class="st16" points="356.9,54 343.6,46.1 335.5,41.3 329.5,37.8 328.4,37.2 318.2,31.1 305.5,23.6 			"/>
			<polyline class="st16" points="328.4,54 335.5,41.3 339.4,34.4 343,27.8 344.5,25.3 344.8,24.7 358.5,0.2 			"/>
			<polyline class="st16" points="328.4,0.2 334.1,11 337.1,16.6 339.5,21.1 342.6,26.9 343,27.8 350.8,42.4 356.9,54 			"/>
			<polyline class="st16" points="329.5,37.8 336.8,31.6 342.6,26.9 344.5,25.3 345,24.9 363.6,9.4 374.1,0.8 			"/>
			<polyline class="st16" points="356.9,54 362.6,36.6 362.7,36.3 368.6,18.3 374.3,0.8 374.5,0.2 			"/>
			<polyline class="st16" points="374.5,29 375,29.9 379.5,37.9 388.5,54 			"/>
			<polyline class="st16" points="358.5,0.2 363.6,9.4 368.6,18.3 374.5,29 			"/>
			<polyline class="st16" points="328.4,54 343.6,46.1 347.9,43.9 350.8,42.4 362.4,36.5 362.7,36.3 375,29.9 375.5,29.6 
				381.4,26.6 393.8,20.2 394.3,20 401.6,16.2 405.1,14.4 432.5,0.2 			"/>
			<polyline class="st16" points="356.9,54 372.2,43.1 379.5,37.9 383.5,35 383.7,34.9 392.4,28.7 398.7,24.3 403.1,21.1 
				407.4,18.1 432.5,0.2 			"/>
			<polyline class="st16" points="388.5,54 388.1,52.5 383.5,35 383.5,34.8 381.4,26.6 374.5,0.2 			"/>
			<polyline class="st16" points="432.5,0.2 411.7,25.6 406.5,32 406.4,32.2 396.9,43.6 388.5,54 			"/>
			<polyline class="st16" points="374.5,0.2 393.9,19.6 394.3,20 398.7,24.3 406.3,31.9 406.5,32 428.5,54 			"/>
			<polyline class="st16" points="388.5,52.4 390.6,39.5 392.4,28.7 393.8,20.2 393.9,19.6 397.1,0.8 			"/>
			<polyline class="st16" points="374.5,29 374.5,29 375.5,29.6 383.5,34.8 383.7,34.9 390.6,39.5 396.9,43.6 412.8,54 			"/>
			<polyline class="st16" points="397.1,0.8 401.6,16.2 403.1,21.1 406.3,31.9 406.4,32.2 412.8,54 			"/>
			<polyline class="st16" points="397.1,0.8 405.1,14.4 407.4,18.1 411.7,25.6 428.5,54 			"/>
			<line class="st16" x1="432.5" y1="0.2" x2="428.5" y2="54"/>
			<polyline class="st16" points="0.2,0.2 15.2,29.7 21,41 27.6,54 			"/>
		</g>
	</g>
</g>
<g>
</g>
<g>
</g>
<g>
</g>
<g>
</g>
<g>
</g>
<g>
</g>
</svg>
