<?xml version="1.0" encoding="utf-8"?>
<!-- Generator: Adobe Illustrator 18.1.0, SVG Export Plug-In . SVG Version: 6.00 Build 0)  -->
<svg version="1.1" id="Layer_1" xmlns="http://www.w3.org/2000/svg" xmlns:xlink="http://www.w3.org/1999/xlink" x="0px" y="0px"
	 viewBox="0 0 104.2 70.5" style="enable-background:new 0 0 104.2 70.5;" xml:space="preserve">
<style type="text/css">
	.st0{fill:#40BFB4;}
</style>
<g>
	<path class="st0" d="M95.9,16.5H8.2C3.7,16.5,0,12.8,0,8.2v0C0,3.7,3.7,0,8.2,0l87.7,0c4.5,0,8.2,3.7,8.2,8.2v0
		C104.2,12.8,100.4,16.5,95.9,16.5z"/>
	<path class="st0" d="M95.9,43.5H8.2c-4.5,0-8.2-3.7-8.2-8.2v0C0,30.7,3.7,27,8.2,27h87.7c4.5,0,8.2,3.7,8.2,8.2v0
		C104.2,39.8,100.4,43.5,95.9,43.5z"/>
	<path class="st0" d="M95.9,70.5H8.2c-4.5,0-8.2-3.7-8.2-8.2v0C0,57.7,3.7,54,8.2,54h87.7c4.5,0,8.2,3.7,8.2,8.2v0
		C104.2,66.8,100.4,70.5,95.9,70.5z"/>
</g>
<g>
</g>
<g>
</g>
<g>
</g>
<g>
</g>
<g>
</g>
<g>
</g>
</svg>
