<?xml version="1.0" encoding="utf-8"?>
<!-- Generator: Adobe Illustrator 18.1.0, SVG Export Plug-In . SVG Version: 6.00 Build 0)  -->
<svg version="1.1" id="Layer_1" xmlns="http://www.w3.org/2000/svg" xmlns:xlink="http://www.w3.org/1999/xlink" x="0px" y="0px"
	 viewBox="0 0 73.1 47" style="enable-background:new 0 0 73.1 47;" xml:space="preserve">
<style type="text/css">
	.st0{fill:#FFFFFF;}
</style>
<path class="st0" d="M67.2,11.8H5.9C2.7,11.8,0,9.2,0,5.9v0C0,2.7,2.7,0,5.9,0l61.3,0c3.3,0,5.9,2.7,5.9,5.9v0
	C73.1,9.2,70.4,11.8,67.2,11.8z"/>
<path class="st0" d="M67.2,29.4H5.9c-3.3,0-5.9-2.7-5.9-5.9v0c0-3.3,2.7-5.9,5.9-5.9h61.3c3.3,0,5.9,2.7,5.9,5.9v0
	C73.1,26.8,70.4,29.4,67.2,29.4z"/>
<path class="st0" d="M67.2,47H5.9C2.7,47,0,44.3,0,41.1v0c0-3.3,2.7-5.9,5.9-5.9h61.3c3.3,0,5.9,2.7,5.9,5.9v0
	C73.1,44.3,70.4,47,67.2,47z"/>
<g>
</g>
<g>
</g>
<g>
</g>
<g>
</g>
<g>
</g>
<g>
</g>
<g>
</g>
<g>
</g>
<g>
</g>
<g>
</g>
<g>
</g>
<g>
</g>
<g>
</g>
<g>
</g>
<g>
</g>
</svg>
