<?xml version="1.0" encoding="utf-8"?>
<!-- Generator: Adobe Illustrator 18.1.0, SVG Export Plug-In . SVG Version: 6.00 Build 0)  -->
<svg version="1.1" id="Layer_1" xmlns="http://www.w3.org/2000/svg" xmlns:xlink="http://www.w3.org/1999/xlink" x="0px" y="0px"
	 viewBox="0 0 300 597.9" style="enable-background:new 0 0 300 597.9;" xml:space="preserve">
<style type="text/css">
	.st0{fill:#70AEB8;}
	.st1{fill:#590056;}
	.st2{fill:#FFFFFF;}
	.st3{fill:#6D6064;}
	.st4{fill:none;stroke:#000000;stroke-width:5;stroke-miterlimit:10;}
	.st5{fill:none;stroke:#000000;stroke-width:3;stroke-miterlimit:10;}
	.st6{fill:none;stroke:#000000;stroke-miterlimit:10;}
</style>
<g id="XMLID_1_">
	<g>
		<path class="st0" d="M247.9,394.7c1.3,34.6-16.8,52.2-29.4,60.1c-4.2-5.4-9-10.3-14.4-14.6c20.5-4.2,35.9-22.3,35.9-44.1
			c0-0.4,0-0.8,0-1.2L247.9,394.7z"/>
		<path class="st0" d="M247.9,394.7L240,395c-0.6-24.3-20.5-43.8-45-43.8c-21.8,0-40,15.6-44.1,36.2c-5.1-19.1-22.5-33.2-43.3-33.2
			c-24.7,0-44.8,20-44.8,44.8c0,19.6,12.6,36.3,30.1,42.3c-4.7,3.9-9,8.3-12.8,13.1C62,442.5,33.8,411.1,66.6,338.6
			c0,0,13.1-19,5.5-37.9c0.6,0.5,20,15,27.2,23c0,0,28.1-8.1,50.2,8.1h0.6c22.1-16.3,50.2-8.1,50.2-8.1c7.1-8,26.6-22.6,27.2-23
			c-7.6,19,5.5,37.9,5.5,37.9C243,361,247.3,379.5,247.9,394.7z"/>
		<path class="st1" d="M240,395c0,0.4,0,0.8,0,1.2c0,21.7-15.4,39.9-35.9,44.1c-11.6-9.3-25.8-15.7-41.4-18c3.1-4.8,2.1-8.5,2.1-8.5
			l-11.1,0.2c-0.9-2-1.6-4-2.1-6.1c0.6-2.8,0.9-5.8,0.9-8.8c0-4-0.5-7.9-1.5-11.6c4.1-20.6,22.3-36.2,44.1-36.2
			C219.4,351.2,239.3,370.7,240,395z M213.7,399.4c0-12-9.8-21.8-21.8-21.8s-21.8,9.8-21.8,21.8c0,0.1,0,0.2,0,0.3
			c-0.6,1-0.9,2.2-0.9,3.5c0,2.6,1.3,4.8,3.4,6.1c3.6,7,10.9,11.8,19.4,11.8C203.9,421.2,213.7,411.5,213.7,399.4z"/>
		<path class="st0" d="M218.5,454.8c11,14.1,17.5,31.8,17.5,50.8c0,31.5-17.7,59-44,73.5c-0.3-2.4-0.8-4.5-1.4-6c0,0,0,0,0,0
			c20.5-40.2-12.8-107.6-16.9-115.4c15.6,6.4,33.2,2.8,33.2,2.8S211.9,459,218.5,454.8z"/>
		<path class="st0" d="M204,440.2c5.4,4.3,10.3,9.2,14.4,14.6c-6.6,4.2-11.7,5.7-11.7,5.7s-17.5,3.7-33.2-2.8
			c-0.2-0.5-0.4-0.8-0.4-0.8l0.1,0.6c-8.1-3.4-15.7-9.6-20-20.5l-2-5.6c4.2-2.2,7.1-4.5,9.2-6.6c8.3,9.9,20.7,16.2,34.5,16.2
			C198.1,441.1,201.1,440.8,204,440.2z"/>
		<path class="st2" d="M191.9,377.6c12,0,21.8,9.8,21.8,21.8s-9.8,21.8-21.8,21.8c-8.4,0-15.8-4.8-19.4-11.8c1.1,0.7,2.5,1.2,4,1.2
			c4,0,7.3-3.3,7.3-7.3c0-4-3.3-7.3-7.3-7.3c-2.8,0-5.2,1.5-6.4,3.8c0-0.1,0-0.2,0-0.3C170.1,387.4,179.8,377.6,191.9,377.6z"/>
		<path class="st1" d="M204,440.2c-2.9,0.6-5.9,0.9-9,0.9c-13.9,0-26.3-6.3-34.5-16.2c0.9-1,1.6-1.9,2.2-2.8
			C178.2,424.5,192.4,430.9,204,440.2z"/>
		<path d="M191.9,579.2c0.2,1.3,0.2,2.6,0.2,4c0,6.9-1.9,12.5-4.2,12.5c-2.3,0-4.2-5.6-4.2-12.5c0,0,0,0,0,0
			C186.6,582,189.3,580.7,191.9,579.2z"/>
		<path d="M190.5,573.2c0.7,1.5,1.2,3.6,1.4,6c-2.6,1.5-5.4,2.8-8.1,4c0-3.8,0.6-7.1,1.4-9.4l0.7,6.7
			C187.7,578.2,189.2,575.8,190.5,573.2z"/>
		<path class="st1" d="M173.6,457.8c4,7.9,37.3,75.2,16.9,115.4c-0.7-1.6-1.6-2.5-2.5-2.5c-1,0-2,1.1-2.7,3.1l-11.9-116.1
			C173.4,457.7,173.5,457.8,173.6,457.8z"/>
		<path d="M190.5,573.2C190.5,573.2,190.5,573.2,190.5,573.2c-1.3,2.6-2.8,5-4.6,7.3l-0.7-6.7c0.7-1.9,1.7-3.1,2.7-3.1
			C188.9,570.8,189.8,571.7,190.5,573.2z"/>
		<path class="st1" d="M173.3,457.7l11.9,116.1c-0.9,2.3-1.4,5.6-1.4,9.4c-0.5,0.2-0.9,0.4-1.4,0.6c-0.3-6.1-2-10.9-4.1-10.9
			c-2.3,0-4.2,5.6-4.2,12.5c0,0.4,0,0.8,0,1.3c-0.7,0.2-1.4,0.4-2.1,0.6c0-0.1,0-0.3,0-0.4c0-6.9-1.9-12.5-4.2-12.5
			c-2.3,0-4.2,5.6-4.2,12.5c0,0.8,0,1.5,0.1,2.2c-4.7,0.8-9.6,1.2-14.5,1.2c-2.6,0-5.2-0.1-7.7-0.3c0.1-1,0.1-2,0.1-3.1
			c0-6.9-1.9-12.5-4.2-12.5s-4.2,5.6-4.2,12.5c0,0.7,0,1.3,0.1,2c-0.8-0.1-1.5-0.3-2.3-0.4c0.1-0.9,0.1-1.9,0.1-2.9
			c0-6.9-1.9-12.5-4.2-12.5c-2.3,0-4.2,5.6-4.2,12.5c0,0.3,0,0.6,0,0.8c-0.5-0.2-1-0.3-1.4-0.5c0.1-0.8,0.1-1.7,0.1-2.5
			c0-6.9-1.9-12.5-4.2-12.5c-0.5,0-1,0.2-1.4,0.7l11.5-111.7v0c20.5-6.3,26-22.6,26-22.6C157.5,448.1,165.1,454.2,173.3,457.7z"/>
		<path d="M182.4,583.8c0,0.5,0,1.1,0,1.6c0,6.9-1.9,12.5-4.2,12.5c-2.2,0-4-4.9-4.2-11.2C176.9,585.8,179.7,584.9,182.4,583.8z"/>
		<path d="M176.5,396c4,0,7.3,3.3,7.3,7.3c0,4-3.3,7.3-7.3,7.3c-1.5,0-2.8-0.4-4-1.2c-1.5-2.9-2.4-6.2-2.4-9.7
			C171.3,397.5,173.7,396,176.5,396z"/>
		<path d="M178.2,572.9c2.1,0,3.9,4.7,4.1,10.9c-2.7,1.1-5.5,2.1-8.3,2.9c0-0.4,0-0.8,0-1.3C174.1,578.5,175.9,572.9,178.2,572.9z"
			/>
		<path class="st2" d="M173.6,457.8c-0.1,0-0.2-0.1-0.3-0.1l-0.1-0.6C173.2,457,173.4,457.3,173.6,457.8z"/>
		<path d="M172,586.8c0,0.1,0,0.3,0,0.4c-2.7,0.7-5.5,1.3-8.3,1.8c0-0.7-0.1-1.4-0.1-2.2c0-6.9,1.9-12.5,4.2-12.5
			C170.1,574.3,172,579.9,172,586.8z"/>
		<path d="M172.5,409.4c-2-1.3-3.4-3.6-3.4-6.1c0-1.3,0.3-2.5,0.9-3.5C170.1,403.3,171,406.5,172.5,409.4z"/>
		<path d="M172,587.2c-0.1,6.7-1.9,12.1-4.2,12.1c-2.1,0-3.8-4.4-4.1-10.3C166.5,588.6,169.3,588,172,587.2z"/>
		<path class="st3" d="M164.8,413.7c0,0,1,3.7-2.1,8.5c-1.6-0.2-3.2-0.4-4.8-0.6c-1.7-2.4-3.1-5-4.3-7.7L164.8,413.7z"/>
		<path class="st3" d="M162.7,422.2c-0.6,0.9-1.3,1.8-2.2,2.8c-0.9-1.1-1.8-2.2-2.6-3.4C159.5,421.7,161.1,421.9,162.7,422.2z"/>
		<path class="st3" d="M157.9,421.6c0.8,1.2,1.6,2.3,2.6,3.4c-2,2.2-5,4.4-9.2,6.6c0,0-4.2-1.7-8-5.5c1.2-1.5,2.3-3.2,3.3-4.9
			c0.9,0,1.8,0,2.7,0C152.1,421.2,155,421.3,157.9,421.6z"/>
		<path class="st3" d="M153.6,413.9c1.2,2.7,2.6,5.3,4.3,7.7c-2.9-0.3-5.8-0.4-8.8-0.4c-0.9,0-1.8,0-2.7,0c1.3-2.3,2.4-4.7,3.3-7.3
			L153.6,413.9z"/>
		<path class="st2" d="M153.6,413.9l-3.8,0.1c0.7-2,1.3-4.1,1.7-6.2C152.1,409.8,152.8,411.9,153.6,413.9z"/>
		<path class="st0" d="M151.3,431.6l2,5.6c0,0-5.5,16.2-26,22.6c-8.6,2.7-19.9,3.6-34.6,0.8c0,0-5.5-1.7-12.5-6.2
			c3.8-4.8,8-9.2,12.8-13.1c4.6,1.6,9.5,2.4,14.6,2.4c14.5,0,27.4-6.9,35.6-17.6C147,429.9,151.3,431.6,151.3,431.6z"/>
		<path class="st1" d="M152.4,398.9c0,3-0.3,6-0.9,8.8c-1-3.7-1.5-7.6-1.5-11.6c0-3,0.3-5.9,0.9-8.8
			C151.9,391,152.4,394.9,152.4,398.9z"/>
		<path class="st1" d="M151.5,407.7c-0.4,2.1-1,4.2-1.7,6.2l-12.6,0.2c0.3,2.9,1.3,5.4,2.5,7.5c-17.8,1.9-33.9,8.9-46.8,19.6
			c-17.5-6.1-30.1-22.7-30.1-42.3c0-24.7,20-44.8,44.8-44.8c20.7,0,38.2,14.1,43.3,33.2c-0.6,2.8-0.9,5.8-0.9,8.8
			C150,400.2,150.5,404,151.5,407.7z M135.7,400.1c0-11.7-9.4-21.1-21.1-21.1c-11.6,0-21.1,9.4-21.1,21.1c0,11.6,9.4,21.1,21.1,21.1
			C126.3,421.2,135.7,411.7,135.7,400.1z"/>
		<path class="st3" d="M137.2,414.2l12.6-0.2c-0.9,2.5-2,5-3.3,7.3c-2.3,0.1-4.5,0.2-6.7,0.4C138.5,419.5,137.6,417,137.2,414.2z"/>
		<path class="st3" d="M146.5,421.2c-1,1.7-2.1,3.3-3.3,4.9c-1.2-1.2-2.4-2.7-3.4-4.4C142,421.4,144.2,421.3,146.5,421.2z"/>
		<path d="M141.6,586.8c0,1,0,2.1-0.1,3.1c-2.8-0.2-5.5-0.6-8.2-1.1c0-0.6-0.1-1.3-0.1-2c0-6.9,1.9-12.5,4.2-12.5
			S141.6,579.9,141.6,586.8z"/>
		<path d="M141.4,589.9c-0.5,5.4-2.1,9.4-4.1,9.4c-2.1,0-3.8-4.5-4.1-10.5C135.9,589.3,138.7,589.6,141.4,589.9z"/>
		<path class="st1" d="M139.8,421.6c1,1.7,2.2,3.2,3.4,4.4c-8.2,10.7-21.1,17.6-35.6,17.6c-5.1,0-10-0.9-14.6-2.4
			C105.9,430.6,122,423.5,139.8,421.6z"/>
		<circle cx="127.3" cy="403.7" r="6.8"/>
		<path d="M131.1,585.4c0,1,0,2-0.1,2.9c-2.8-0.6-5.5-1.3-8.2-2.1c0-0.3,0-0.5,0-0.8c0-6.9,1.9-12.5,4.2-12.5
			C129.2,572.9,131.1,578.5,131.1,585.4z"/>
		<path class="st2" d="M114.6,379c11.7,0,21.1,9.4,21.1,21.1c0,11.6-9.4,21.1-21.1,21.1c-11.6,0-21.1-9.4-21.1-21.1
			C93.5,388.4,102.9,379,114.6,379z M134.1,403.7c0-3.8-3-6.8-6.8-6.8s-6.8,3-6.8,6.8c0,3.8,3,6.8,6.8,6.8S134.1,407.5,134.1,403.7z
			"/>
		<path d="M131,588.3c-0.4,5.5-2.1,9.5-4.1,9.5c-2.2,0-4-5.1-4.2-11.7C125.4,587.1,128.2,587.8,131,588.3z"/>
		<path class="st0" d="M127.3,459.7L127.3,459.7c0,0-42.4,79.7-14.2,121.4c0,0.5-0.1,1-0.1,1.4c-29.9-13.3-50.7-42.7-50.7-76.9
			c0-19.3,6.7-37.1,17.8-51.3c7,4.5,12.5,6.2,12.5,6.2C107.4,463.4,118.7,462.4,127.3,459.7z"/>
		<path class="st1" d="M127.3,459.8l-11.5,111.7c-1.4,1.5-2.5,5.2-2.7,9.6C84.9,539.4,127.3,459.8,127.3,459.8z"/>
		<path d="M121.4,583.2c0,0.9,0,1.7-0.1,2.5c-2.3-0.8-4.5-1.6-6.7-2.5l1.2-11.8c0.4-0.5,0.9-0.7,1.4-0.7
			C119.5,570.8,121.4,576.3,121.4,583.2z"/>
		<path d="M121.3,585.8c-0.4,5.7-2.1,10-4.1,10c-2.3,0-4.2-5.6-4.2-12.5c0-0.2,0-0.5,0-0.7c0.5,0.2,1,0.5,1.6,0.7
			C116.8,584.2,119,585,121.3,585.8z"/>
		<path d="M115.8,571.5l-1.2,11.8c-0.5-0.7-1-1.4-1.5-2.1C113.3,576.6,114.4,572.9,115.8,571.5z"/>
		<path d="M114.6,583.2c-0.5-0.2-1.1-0.5-1.6-0.7c0-0.5,0-1,0.1-1.4C113.6,581.8,114.1,582.5,114.6,583.2z"/>
	</g>
	<g>
		<path class="st4" d="M113,582.6c-29.9-13.3-50.7-42.7-50.7-76.9c0-19.3,6.7-37.1,17.8-51.3"/>
		<path class="st4" d="M122.8,586.2c-0.5-0.2-1-0.3-1.4-0.5"/>
		<path class="st4" d="M133.3,588.8c-0.8-0.1-1.5-0.3-2.3-0.4"/>
		<path class="st4" d="M163.7,589c-4.7,0.8-9.6,1.2-14.5,1.2c-2.6,0-5.2-0.1-7.7-0.3"/>
		<path class="st4" d="M174.1,586.7c-0.7,0.2-1.4,0.4-2.1,0.6"/>
		<path class="st4" d="M183.8,583.2c-0.5,0.2-0.9,0.4-1.4,0.6"/>
		<path class="st4" d="M218.5,454.8c11,14.1,17.5,31.8,17.5,50.8c0,31.5-17.7,59-44,73.5"/>
		<path class="st5" d="M72.1,300.7c0.6,0.5,20,15,27.2,23c0,0,28.1-8.1,50.2,8.1"/>
		<path class="st5" d="M173.3,457.7c-8.1-3.4-15.7-9.6-20-20.5c0,0-5.5,16.2-26,22.6c-8.6,2.7-19.9,3.6-34.6,0.8
			c0,0-5.5-1.7-12.5-6.2C62,442.5,33.8,411.1,66.6,338.6c0,0,13.1-19,5.5-37.9l0,0"/>
		<path class="st5" d="M227.4,300.7L227.4,300.7c-7.6,19,5.5,37.9,5.5,37.9c10.1,22.4,14.4,40.9,15,56.1
			c1.3,34.6-16.8,52.2-29.4,60.1c-6.6,4.2-11.7,5.7-11.7,5.7s-17.5,3.7-33.2-2.8"/>
		<path class="st5" d="M150,331.9c22.1-16.3,50.2-8.1,50.2-8.1c7.1-8,26.6-22.6,27.2-23"/>
		<path class="st5" d="M150.9,387.4c4.1-20.6,22.3-36.2,44.1-36.2c24.5,0,44.4,19.5,45,43.8c0,0.4,0,0.8,0,1.2
			c0,21.7-15.4,39.9-35.9,44.1c-2.9,0.6-5.9,0.9-9,0.9c-13.9,0-26.3-6.3-34.5-16.2"/>
		<path class="st5" d="M153.6,413.9c-0.9-2-1.6-4-2.1-6.1"/>
		<path class="st5" d="M170.1,399.8c0-0.1,0-0.2,0-0.3c0-12,9.8-21.8,21.8-21.8s21.8,9.8,21.8,21.8s-9.8,21.8-21.8,21.8
			c-8.4,0-15.8-4.8-19.4-11.8"/>
		<path class="st6" d="M170.1,399.8c1.2-2.2,3.6-3.8,6.4-3.8c4,0,7.3,3.3,7.3,7.3c0,4-3.3,7.3-7.3,7.3c-1.5,0-2.8-0.4-4-1.2
			c-2-1.3-3.4-3.6-3.4-6.1C169.2,402,169.5,400.8,170.1,399.8z"/>
		<path class="st5" d="M143.2,426.1c-8.2,10.7-21.1,17.6-35.6,17.6c-5.1,0-10-0.9-14.6-2.4c-17.5-6.1-30.1-22.7-30.1-42.3
			c0-24.7,20-44.8,44.8-44.8c20.7,0,38.2,14.1,43.3,33.2c1,3.7,1.5,7.6,1.5,11.6c0,3-0.3,6-0.9,8.8c-0.4,2.1-1,4.2-1.7,6.2"/>
		<path class="st5" d="M135.7,400.1c0,11.6-9.4,21.1-21.1,21.1c-11.6,0-21.1-9.4-21.1-21.1c0-11.7,9.4-21.1,21.1-21.1
			C126.3,379,135.7,388.4,135.7,400.1z"/>
		<circle class="st6" cx="127.3" cy="403.7" r="6.8"/>
		<path class="st5" d="M153.6,413.9l11.1-0.2c0,0,1,3.7-2.1,8.5c-0.6,0.9-1.3,1.8-2.2,2.8c-2,2.2-5,4.4-9.2,6.6c0,0-4.2-1.7-8-5.5
			c-1.2-1.2-2.4-2.7-3.4-4.4c-1.2-2.1-2.2-4.6-2.5-7.5l12.6-0.2L153.6,413.9z"/>
		<path class="st5" d="M127.3,459.8c0,0-42.4,79.7-14.2,121.4"/>
		<path class="st5" d="M190.5,573.2c-1.3,2.5-2.8,5-4.6,7.3"/>
		<path class="st5" d="M173.2,457c0,0,0.1,0.3,0.4,0.8c4,7.9,37.3,75.2,16.9,115.4"/>
		<path class="st5" d="M190.5,573.2C190.5,573.2,190.5,573.2,190.5,573.2"/>
	</g>
</g>
<g id="XMLID_2_">
	<g>
		<path class="st1" d="M239.3,94.9c0-0.4,0-0.8,0-1.2l7.9-0.3c1.3,34.6-16.8,52.1-29.4,60.1c-4.2-5.4-9-10.3-14.4-14.6
			C223.9,134.7,239.3,116.6,239.3,94.9z"/>
		<path class="st1" d="M217.8,153.5c11,14.1,17.4,31.7,17.4,50.8c0,31.5-17.7,58.9-43.9,73.4c-0.3-2.4-0.8-4.5-1.4-6c0,0,0,0,0,0
			c20.4-40.1-12.8-107.4-16.9-115.3c15.6,6.4,33.1,2.8,33.1,2.8S211.2,157.6,217.8,153.5z"/>
		<path class="st1" d="M203.4,138.9c5.4,4.3,10.2,9.2,14.4,14.6c-6.6,4.2-11.7,5.7-11.7,5.7s-17.5,3.7-33.1-2.8
			c-0.2-0.5-0.4-0.8-0.4-0.8l0.1,0.6c-8.1-3.4-15.7-9.6-20-20.5l-2-5.6c4.2-2.2,7.1-4.5,9.2-6.6c8.2,9.9,20.6,16.2,34.5,16.2
			C197.4,139.8,200.5,139.5,203.4,138.9z"/>
		<path class="st0" d="M203.4,138.9c-2.9,0.6-5.9,0.9-9,0.9c-13.9,0-26.3-6.3-34.5-16.2c0.9-1,1.6-1.9,2.2-2.8
			C177.6,123.2,191.7,129.6,203.4,138.9z"/>
		<path d="M187.3,294.2c-2.3,0-4.2-5.6-4.2-12.5c0,0,0,0,0,0c2.8-1.2,5.5-2.5,8.1-4c0.2,1.3,0.2,2.6,0.2,4
			C191.5,288.6,189.7,294.2,187.3,294.2z"/>
		<path d="M189.8,271.7c-1.3,2.5-2.8,5-4.6,7.3l-0.7-6.7c0.7-1.9,1.7-3,2.7-3C188.3,269.3,189.1,270.2,189.8,271.7
			C189.8,271.7,189.8,271.7,189.8,271.7z"/>
		<path class="st0" d="M187.3,269.3c-1,0-2,1.1-2.7,3l-11.9-116c0.1,0,0.2,0.1,0.3,0.1c4,7.9,37.3,75.1,16.9,115.3
			C189.1,270.2,188.3,269.3,187.3,269.3z"/>
		<path d="M185.3,279c1.8-2.3,3.3-4.7,4.6-7.3c0.7,1.5,1.2,3.6,1.4,6c-2.6,1.5-5.3,2.8-8.1,4c0-3.7,0.6-7.1,1.4-9.4L185.3,279z"/>
		<path d="M175.8,94.7c4,0,7.3,3.3,7.3,7.3c0,4-3.3,7.3-7.3,7.3c-1.5,0-2.8-0.4-4-1.2c-1.5-2.9-2.4-6.2-2.4-9.7
			C170.7,96.2,173.1,94.7,175.8,94.7z"/>
		<path d="M177.6,271.4c2.1,0,3.9,4.7,4.1,10.8c-2.7,1.1-5.5,2.1-8.3,2.9c0-0.4,0-0.8,0-1.3C173.4,277,175.3,271.4,177.6,271.4z"/>
		<path d="M181.8,283.9c0,6.9-1.9,12.5-4.2,12.5c-2.2,0-4-4.9-4.2-11.2c2.8-0.8,5.6-1.8,8.3-2.9
			C181.8,282.8,181.8,283.3,181.8,283.9z"/>
		<path class="st2" d="M173,156.4c-0.1,0-0.2-0.1-0.3-0.1l-0.1-0.6C172.6,155.7,172.7,155.9,173,156.4z"/>
		<path d="M171.9,108.1c-2-1.3-3.3-3.6-3.3-6.1c0-1.3,0.3-2.5,0.9-3.5C169.5,102,170.4,105.2,171.9,108.1z"/>
		<path class="st0" d="M162.1,120.9c3.1-4.8,2.1-8.5,2.1-8.5l-11.1,0.2c-0.9-2-1.6-4-2.1-6.1c0.6-2.8,0.9-5.8,0.9-8.8
			c0-4-0.5-7.9-1.5-11.6c4.1-20.6,22.3-36.1,44.1-36.1c24.4,0,44.3,19.5,44.9,43.8c0,0.4,0,0.8,0,1.2c0,21.7-15.4,39.8-35.9,44
			C191.7,129.6,177.6,123.2,162.1,120.9z M171.9,108.1c3.6,7,10.9,11.8,19.4,11.8c12,0,21.8-9.8,21.8-21.8s-9.8-21.8-21.8-21.8
			c-12,0-21.8,9.8-21.8,21.8c0,0.1,0,0.2,0,0.3c-0.6,1-0.9,2.2-0.9,3.5C168.5,104.6,169.9,106.9,171.9,108.1z"/>
		<path d="M171.4,285.7c-0.1,6.7-1.9,12-4.2,12c-2.1,0-3.8-4.4-4.1-10.3C165.9,287,168.6,286.4,171.4,285.7z"/>
		<path class="st2" d="M175.8,94.7c-2.8,0-5.2,1.5-6.4,3.8c0-0.1,0-0.2,0-0.3c0-12,9.8-21.8,21.8-21.8c12,0,21.8,9.8,21.8,21.8
			s-9.8,21.8-21.8,21.8c-8.4,0-15.7-4.8-19.4-11.8c1.1,0.7,2.5,1.2,4,1.2c4,0,7.3-3.3,7.3-7.3C183.2,98,179.9,94.7,175.8,94.7z"/>
		<path d="M163,285.3c0-6.9,1.9-12.5,4.2-12.5s4.2,5.6,4.2,12.5c0,0.1,0,0.3,0,0.4c-2.7,0.7-5.5,1.3-8.3,1.8
			C163,286.8,163,286.1,163,285.3z"/>
		<path class="st3" d="M164.2,112.4c0,0,1,3.7-2.1,8.5c-1.6-0.2-3.2-0.4-4.8-0.6c-1.7-2.4-3.1-5-4.2-7.7L164.2,112.4z"/>
		<path class="st3" d="M162.1,120.9c-0.6,0.9-1.3,1.8-2.2,2.8c-0.9-1.1-1.8-2.2-2.5-3.4C158.9,120.4,160.5,120.6,162.1,120.9z"/>
		<path class="st3" d="M157.3,120.3c0.8,1.2,1.6,2.3,2.5,3.4c-2,2.1-5,4.4-9.2,6.6c0,0-4.2-1.7-8-5.5c1.2-1.5,2.3-3.2,3.3-4.9
			c0.9,0,1.8,0,2.7,0C151.5,119.8,154.4,120,157.3,120.3z"/>
		<path class="st3" d="M153.1,112.6c1.2,2.7,2.6,5.3,4.2,7.7c-2.9-0.3-5.8-0.4-8.7-0.4c-0.9,0-1.8,0-2.7,0c1.3-2.3,2.4-4.7,3.3-7.2
			L153.1,112.6z"/>
		<path class="st2" d="M153.1,112.6l-3.8,0.1c0.7-2,1.3-4.1,1.7-6.2C151.5,108.5,152.2,110.6,153.1,112.6z"/>
		<path class="st1" d="M150.7,130.3l2,5.6c0,0-5.5,16.2-25.9,22.5c-8.6,2.7-19.9,3.6-34.6,0.8c0,0-5.5-1.7-12.5-6.2
			c3.8-4.8,8-9.2,12.8-13.1c4.6,1.6,9.5,2.4,14.6,2.4c14.5,0,27.4-6.9,35.5-17.6C146.5,128.6,150.7,130.3,150.7,130.3z"/>
		<path class="st0" d="M151.8,97.6c0,3-0.3,6-0.9,8.8c-1-3.7-1.5-7.6-1.5-11.6c0-3,0.3-6,0.9-8.8C151.3,89.8,151.8,93.6,151.8,97.6z
			"/>
		<path class="st3" d="M136.7,112.9l12.5-0.2c-0.9,2.5-2,5-3.3,7.2c-2.3,0.1-4.5,0.2-6.7,0.4C138,118.2,137,115.7,136.7,112.9z"/>
		<path class="st3" d="M145.9,119.9c-1,1.7-2.1,3.3-3.3,4.9c-1.2-1.2-2.4-2.7-3.4-4.4C141.4,120.1,143.6,120,145.9,119.9z"/>
		<path class="st0" d="M139.2,120.3c1,1.7,2.2,3.2,3.4,4.4c-8.2,10.7-21,17.6-35.5,17.6c-5.1,0-10-0.9-14.6-2.4
			C105.3,129.2,121.5,122.2,139.2,120.3z"/>
		<path d="M140.9,288.3c-0.5,5.4-2.1,9.4-4.1,9.4c-2.1,0-3.8-4.5-4.1-10.5C135.4,287.7,138.1,288.1,140.9,288.3z"/>
		<path d="M141,285.3c0,1,0,2.1-0.1,3c-2.8-0.2-5.5-0.6-8.2-1.1c0-0.6-0.1-1.3-0.1-2c0-6.9,1.9-12.5,4.2-12.5
			C139.1,272.8,141,278.4,141,285.3z"/>
		<circle cx="126.7" cy="102.4" r="6.8"/>
		<path class="st2" d="M120,102.4c0,3.7,3,6.8,6.8,6.8s6.8-3,6.8-6.8c0-3.7-3-6.8-6.8-6.8S120,98.7,120,102.4z M135.1,98.8
			c0,11.6-9.4,21.1-21.1,21.1c-11.6,0-21.1-9.4-21.1-21.1c0-11.6,9.4-21.1,21.1-21.1C125.7,77.7,135.1,87.1,135.1,98.8z"/>
		<path d="M122.2,283.9c0-6.9,1.9-12.5,4.2-12.5c2.3,0,4.2,5.6,4.2,12.5c0,1,0,2-0.1,2.9c-2.8-0.6-5.6-1.3-8.2-2.1
			C122.2,284.4,122.2,284.2,122.2,283.9z"/>
		<path d="M126.4,296.3c-2.2,0-4-5.1-4.2-11.6c2.7,0.8,5.4,1.5,8.2,2.1C130,292.3,128.3,296.3,126.4,296.3z"/>
		<path class="st1" d="M126.7,158.4L126.7,158.4c0,0-42.3,79.6-14.2,121.2c0,0.5-0.1,0.9-0.1,1.4c-29.9-13.3-50.6-42.7-50.6-76.8
			c0-19.3,6.6-37.1,17.8-51.3c7,4.5,12.5,6.2,12.5,6.2C106.8,162,118.1,161.1,126.7,158.4z"/>
		<path class="st0" d="M114.1,119.8c11.6,0,21.1-9.4,21.1-21.1c0-11.6-9.4-21.1-21.1-21.1c-11.6,0-21.1,9.4-21.1,21.1
			C93,110.4,102.4,119.8,114.1,119.8z M139.2,120.3c-17.7,1.9-33.8,8.9-46.7,19.6c-17.5-6.1-30.1-22.7-30.1-42.3
			c0-24.7,20-44.7,44.7-44.7c20.7,0,38.1,14,43.2,33.1c-0.6,2.8-0.9,5.8-0.9,8.8c0,4,0.5,7.9,1.5,11.6c-0.4,2.1-1,4.2-1.7,6.2
			l-12.5,0.2C137,115.7,138,118.2,139.2,120.3z"/>
		<path class="st0" d="M172.7,156.3l11.9,116c-0.9,2.3-1.4,5.6-1.4,9.4c-0.5,0.2-0.9,0.4-1.4,0.6c-0.3-6.1-2-10.8-4.1-10.8
			c-2.3,0-4.2,5.6-4.2,12.5c0,0.4,0,0.8,0,1.3c-0.7,0.2-1.4,0.4-2.1,0.6c0-0.1,0-0.3,0-0.4c0-6.9-1.9-12.5-4.2-12.5
			s-4.2,5.6-4.2,12.5c0,0.8,0,1.5,0.1,2.2c-4.7,0.8-9.6,1.2-14.5,1.2c-2.6,0-5.2-0.1-7.7-0.3c0.1-1,0.1-2,0.1-3
			c0-6.9-1.9-12.5-4.2-12.5c-2.3,0-4.2,5.6-4.2,12.5c0,0.7,0,1.3,0.1,2c-0.8-0.1-1.5-0.3-2.2-0.4c0.1-0.9,0.1-1.9,0.1-2.9
			c0-6.9-1.9-12.5-4.2-12.5c-2.3,0-4.2,5.6-4.2,12.5c0,0.3,0,0.6,0,0.8c-0.5-0.2-1-0.3-1.4-0.5c0.1-0.8,0.1-1.7,0.1-2.5
			c0-6.9-1.9-12.5-4.2-12.5c-0.5,0-1,0.2-1.4,0.7l11.5-111.6v0c20.4-6.3,25.9-22.5,25.9-22.5C157,146.7,164.5,152.9,172.7,156.3z"/>
		<path d="M114.1,281.7l1.2-11.8c0.4-0.5,0.9-0.7,1.4-0.7c2.3,0,4.2,5.6,4.2,12.5c0,0.9,0,1.7-0.1,2.5
			C118.5,283.5,116.2,282.6,114.1,281.7z"/>
		<path class="st0" d="M112.5,279.6c-28.1-41.6,14.2-121.2,14.2-121.2L115.3,270C113.8,271.4,112.8,275.1,112.5,279.6z"/>
		<path d="M115.3,270l-1.2,11.8c-0.5-0.7-1-1.4-1.5-2.1C112.8,275.1,113.8,271.4,115.3,270z"/>
		<path d="M112.5,279.6c0.5,0.7,1,1.4,1.5,2.1c-0.5-0.2-1.1-0.5-1.6-0.7C112.5,280.5,112.5,280.1,112.5,279.6z"/>
		<path d="M114.1,281.7c2.2,0.9,4.4,1.8,6.7,2.5c-0.4,5.7-2.1,9.9-4.1,9.9c-2.3,0-4.2-5.6-4.2-12.5c0-0.2,0-0.5,0-0.7
			C113,281.3,113.5,281.5,114.1,281.7z"/>
		<path class="st1" d="M62.4,97.6c0,19.6,12.6,36.2,30.1,42.3c-4.7,3.9-9,8.3-12.8,13.1c-18.2-11.8-46.4-43.2-13.6-115.6
			c0,0,13.1-18.9,5.5-37.9c0.6,0.5,20,15,27.1,23c0,0,28.1-8.1,50.1,8.1h0.6c22.1-16.2,50.1-8.1,50.1-8.1c7.1-8,26.5-22.5,27.1-23
			c-7.5,18.9,5.5,37.9,5.5,37.9c10.1,22.4,14.4,40.8,15,56l-7.9,0.3c-0.6-24.3-20.5-43.8-44.9-43.8c-21.8,0-40,15.5-44.1,36.1
			c-5.1-19.1-22.5-33.1-43.2-33.1C82.4,52.9,62.4,72.9,62.4,97.6z"/>
	</g>
	<g>
		<path class="st4" d="M112.5,281c-29.9-13.3-50.6-42.7-50.6-76.8c0-19.3,6.6-37.1,17.8-51.3"/>
		<path class="st4" d="M122.2,284.7c-0.5-0.2-1-0.3-1.4-0.5"/>
		<path class="st4" d="M132.7,287.3c-0.8-0.1-1.5-0.3-2.2-0.4"/>
		<path class="st4" d="M163.1,287.5c-4.7,0.8-9.6,1.2-14.5,1.2c-2.6,0-5.2-0.1-7.7-0.3"/>
		<path class="st4" d="M173.5,285.1c-0.7,0.2-1.4,0.4-2.1,0.6"/>
		<path class="st4" d="M183.2,281.7c-0.5,0.2-0.9,0.4-1.4,0.6"/>
		<path class="st4" d="M217.8,153.5c11,14.1,17.4,31.7,17.4,50.8c0,31.5-17.7,58.9-43.9,73.4"/>
		<path class="st5" d="M71.6-0.5c0.6,0.5,20,15,27.1,23c0,0,28.1-8.1,50.1,8.1"/>
		<path class="st5" d="M172.7,156.3c-8.1-3.4-15.7-9.6-20-20.5c0,0-5.5,16.2-25.9,22.5c-8.6,2.7-19.9,3.6-34.6,0.8
			c0,0-5.5-1.7-12.5-6.2c-18.2-11.8-46.4-43.2-13.6-115.6c0,0,13.1-18.9,5.5-37.9l0,0"/>
		<path class="st5" d="M226.7-0.5L226.7-0.5c-7.6,18.9,5.5,37.9,5.5,37.9c10.1,22.4,14.4,40.8,15,56c1.3,34.6-16.8,52.1-29.4,60.1
			c-6.6,4.2-11.7,5.7-11.7,5.7s-17.5,3.7-33.1-2.8"/>
		<path class="st5" d="M149.4,30.7c22.1-16.2,50.1-8.1,50.1-8.1c7.1-8,26.5-22.5,27.1-23"/>
		<path class="st5" d="M150.3,86.1c4.1-20.6,22.3-36.1,44.1-36.1c24.4,0,44.3,19.5,44.9,43.8c0,0.4,0,0.8,0,1.2
			c0,21.7-15.4,39.8-35.9,44c-2.9,0.6-5.9,0.9-9,0.9c-13.9,0-26.3-6.3-34.5-16.2"/>
		<path class="st5" d="M153.1,112.6c-0.9-2-1.6-4-2.1-6.1"/>
		<path class="st5" d="M169.5,98.5c0-0.1,0-0.2,0-0.3c0-12,9.8-21.8,21.8-21.8c12,0,21.8,9.8,21.8,21.8s-9.8,21.8-21.8,21.8
			c-8.4,0-15.7-4.8-19.4-11.8"/>
		<path class="st6" d="M169.5,98.5c1.2-2.2,3.6-3.8,6.4-3.8c4,0,7.3,3.3,7.3,7.3c0,4-3.3,7.3-7.3,7.3c-1.5,0-2.8-0.4-4-1.2
			c-2-1.3-3.3-3.6-3.3-6.1C168.5,100.7,168.9,99.5,169.5,98.5z"/>
		<path class="st5" d="M142.6,124.8c-8.2,10.7-21,17.6-35.5,17.6c-5.1,0-10-0.9-14.6-2.4c-17.5-6.1-30.1-22.7-30.1-42.3
			c0-24.7,20-44.7,44.7-44.7c20.7,0,38.1,14,43.2,33.1c1,3.7,1.5,7.6,1.5,11.6c0,3-0.3,6-0.9,8.8c-0.4,2.1-1,4.2-1.7,6.2"/>
		<path class="st5" d="M135.1,98.8c0,11.6-9.4,21.1-21.1,21.1c-11.6,0-21.1-9.4-21.1-21.1c0-11.6,9.4-21.1,21.1-21.1
			C125.7,77.7,135.1,87.1,135.1,98.8z"/>
		<circle class="st6" cx="126.7" cy="102.4" r="6.8"/>
		<path class="st5" d="M153.1,112.6l11.1-0.2c0,0,1,3.7-2.1,8.5c-0.6,0.9-1.3,1.8-2.2,2.8c-2,2.1-5,4.4-9.2,6.6c0,0-4.2-1.7-8-5.5
			c-1.2-1.2-2.4-2.7-3.4-4.4c-1.2-2.1-2.2-4.6-2.5-7.5l12.5-0.2L153.1,112.6z"/>
		<path class="st5" d="M126.7,158.4c0,0-42.3,79.6-14.2,121.2"/>
		<path class="st5" d="M172.6,155.7c0,0,0.1,0.3,0.4,0.8c4,7.9,37.3,75.1,16.9,115.3"/>
		<path class="st5" d="M189.8,271.7C189.8,271.7,189.8,271.7,189.8,271.7"/>
	</g>
</g>
<g>
</g>
<g>
</g>
<g>
</g>
<g>
</g>
<g>
</g>
<g>
</g>
</svg>
