<?xml version="1.0" encoding="utf-8"?>
<!-- Generator: Adobe Illustrator 18.1.0, SVG Export Plug-In . SVG Version: 6.00 Build 0)  -->
<svg version="1.1" id="Layer_1" xmlns="http://www.w3.org/2000/svg" xmlns:xlink="http://www.w3.org/1999/xlink" x="0px" y="0px"
	 viewBox="0 0 317.4 277.5" style="enable-background:new 0 0 317.4 277.5;" xml:space="preserve">
<style type="text/css">
	.st0{fill:#5D463A;}
	.st1{fill:#70AEB8;}
	.st2{fill:#590056;}
	.st3{fill:#FFFFFF;}
	.st4{fill:#6D6064;}
	.st5{fill:none;stroke:#000000;stroke-width:5;stroke-miterlimit:10;}
	.st6{fill:none;stroke:#000000;stroke-width:3;stroke-miterlimit:10;}
	.st7{fill:none;stroke:#000000;stroke-miterlimit:10;}
</style>
<path class="st0" d="M0,235.8c0,0,131.5,44,317.4,26.6c0,0-159.3,14.9-317.4,6.4V235.8z"/>
<g id="XMLID_1_">
	<g>
		<path class="st1" d="M238.9,88.1c1.2,32-15.5,48.2-27.2,55.6c-3.9-5-8.4-9.6-13.3-13.5c19-3.9,33.2-20.6,33.2-40.7
			c0-0.4,0-0.7,0-1.1L238.9,88.1z"/>
		<path class="st1" d="M238.9,88.1l-7.3,0.3c-0.6-22.5-19-40.5-41.6-40.5c-20.2,0-37,14.4-40.8,33.4c-4.7-17.7-20.8-30.7-40-30.7
			c-22.9,0-41.4,18.5-41.4,41.4c0,18.1,11.7,33.5,27.9,39.1c-4.4,3.6-8.3,7.7-11.8,12.1c-16.8-10.9-42.9-40-12.6-107
			c0,0,12.1-17.5,5.1-35c0.6,0.4,18.5,13.9,25.1,21.3c0,0,26-7.5,46.4,7.5h0.5c20.4-15,46.4-7.5,46.4-7.5
			c6.6-7.4,24.6-20.9,25.1-21.3c-7,17.5,5.1,35,5.1,35C234.4,57,238.4,74.1,238.9,88.1z"/>
		<path class="st2" d="M231.6,88.4c0,0.3,0,0.7,0,1.1c0,20.1-14.3,36.9-33.2,40.7c-10.8-8.6-23.9-14.5-38.2-16.7
			c2.9-4.5,2-7.8,2-7.8l-10.3,0.2c-0.8-1.8-1.4-3.7-2-5.7c0.5-2.6,0.8-5.3,0.8-8.1c0-3.7-0.5-7.3-1.4-10.7
			c3.8-19.1,20.6-33.4,40.8-33.4C212.6,47.8,231,65.9,231.6,88.4z M207.3,92.5c0-11.1-9-20.2-20.2-20.2s-20.2,9-20.2,20.2
			c0,0.1,0,0.2,0,0.3c-0.5,1-0.9,2.1-0.9,3.3c0,2.4,1.2,4.5,3.1,5.7c3.3,6.5,10.1,10.9,17.9,10.9
			C198.3,112.6,207.3,103.6,207.3,92.5z"/>
		<path class="st1" d="M211.7,143.7c10.1,13.1,16.1,29.4,16.1,47c0,29.1-16.4,54.6-40.7,68c-0.2-2.2-0.7-4.1-1.3-5.5c0,0,0,0,0,0
			c18.9-37.2-11.9-99.4-15.6-106.7c14.5,5.9,30.7,2.6,30.7,2.6S205.6,147.5,211.7,143.7z"/>
		<path class="st1" d="M198.4,130.2c5,4,9.5,8.5,13.3,13.5c-6.1,3.8-10.8,5.3-10.8,5.3s-16.2,3.4-30.7-2.6c-0.2-0.5-0.4-0.7-0.4-0.7
			l0.1,0.6c-7.5-3.2-14.5-8.9-18.5-19l-1.9-5.2c3.9-2,6.6-4.1,8.5-6.1c7.6,9.1,19.1,14.9,31.9,14.9
			C192.9,131,195.6,130.7,198.4,130.2z"/>
		<path class="st3" d="M187.1,72.3c11.1,0,20.2,9,20.2,20.2s-9,20.2-20.2,20.2c-7.8,0-14.6-4.4-17.9-10.9c1,0.7,2.3,1.1,3.7,1.1
			c3.7,0,6.8-3,6.8-6.8c0-3.7-3-6.8-6.8-6.8c-2.5,0-4.8,1.4-5.9,3.5c0-0.1,0-0.2,0-0.3C166.9,81.3,176,72.3,187.1,72.3z"/>
		<path class="st2" d="M198.4,130.2c-2.7,0.6-5.5,0.8-8.4,0.8c-12.8,0-24.3-5.8-31.9-14.9c0.8-0.9,1.5-1.8,2-2.6
			C174.5,115.7,187.6,121.6,198.4,130.2z"/>
		<path d="M187.2,258.7c0.1,1.2,0.2,2.4,0.2,3.7c0,6.4-1.7,11.5-3.9,11.5s-3.9-5.2-3.9-11.5c0,0,0,0,0,0
			C182.2,261.2,184.7,260,187.2,258.7z"/>
		<path d="M185.8,253.1c0.6,1.4,1.1,3.3,1.3,5.5c-2.4,1.4-4.9,2.6-7.5,3.7c0-3.5,0.5-6.6,1.3-8.7l0.6,6.2
			C183.2,257.8,184.6,255.5,185.8,253.1z"/>
		<path class="st2" d="M170.2,146.4c3.7,7.3,34.5,69.6,15.6,106.7c-0.7-1.4-1.4-2.3-2.3-2.3c-1,0-1.9,1.1-2.5,2.8l-11-107.4
			C170,146.3,170.1,146.4,170.2,146.4z"/>
		<path d="M185.8,253.1C185.8,253.1,185.8,253.1,185.8,253.1c-1.2,2.4-2.6,4.6-4.2,6.8l-0.6-6.2c0.7-1.8,1.6-2.8,2.5-2.8
			C184.4,250.9,185.2,251.7,185.8,253.1z"/>
		<path class="st2" d="M169.9,146.3l11,107.4c-0.8,2.1-1.3,5.2-1.3,8.7c-0.4,0.2-0.9,0.4-1.3,0.5c-0.2-5.7-1.9-10-3.8-10
			c-2.1,0-3.9,5.2-3.9,11.5c0,0.4,0,0.8,0,1.2c-0.7,0.2-1.3,0.4-1.9,0.5c0-0.1,0-0.3,0-0.4c0-6.4-1.7-11.5-3.9-11.5
			s-3.9,5.2-3.9,11.5c0,0.7,0,1.4,0.1,2c-4.4,0.7-8.9,1.1-13.4,1.1c-2.4,0-4.8-0.1-7.1-0.3c0.1-0.9,0.1-1.8,0.1-2.8
			c0-6.4-1.7-11.5-3.9-11.5s-3.9,5.2-3.9,11.5c0,0.6,0,1.2,0.1,1.8c-0.7-0.1-1.4-0.3-2.1-0.4c0.1-0.9,0.1-1.8,0.1-2.7
			c0-6.4-1.7-11.5-3.9-11.5c-2.1,0-3.9,5.2-3.9,11.5c0,0.3,0,0.5,0,0.8c-0.4-0.1-0.9-0.3-1.3-0.4c0-0.8,0.1-1.5,0.1-2.3
			c0-6.4-1.7-11.5-3.9-11.5c-0.5,0-0.9,0.2-1.3,0.7l10.6-103.3v0c18.9-5.9,24-20.9,24-20.9C155.4,137.4,162.4,143.1,169.9,146.3z"/>
		<path d="M178.3,262.9c0,0.5,0,1,0,1.5c0,6.4-1.7,11.5-3.9,11.5c-2,0-3.7-4.5-3.8-10.4C173.3,264.8,175.8,263.9,178.3,262.9z"/>
		<path d="M172.9,89.3c3.7,0,6.8,3,6.8,6.8c0,3.7-3,6.8-6.8,6.8c-1.3,0-2.6-0.4-3.7-1.1c-1.4-2.7-2.2-5.7-2.2-8.9
			C168.1,90.7,170.3,89.3,172.9,89.3z"/>
		<path d="M174.5,252.9c2,0,3.6,4.4,3.8,10c-2.5,1-5.1,1.9-7.7,2.7c0-0.4,0-0.8,0-1.2C170.6,258,172.4,252.9,174.5,252.9z"/>
		<path class="st3" d="M170.2,146.4c-0.1,0-0.2-0.1-0.3-0.1l-0.1-0.6C169.9,145.7,170,146,170.2,146.4z"/>
		<path d="M168.7,265.7c0,0.1,0,0.3,0,0.4c-2.5,0.7-5.1,1.2-7.7,1.6c0-0.7-0.1-1.3-0.1-2c0-6.4,1.7-11.5,3.9-11.5
			S168.7,259.3,168.7,265.7z"/>
		<path d="M169.2,101.7c-1.9-1.2-3.1-3.3-3.1-5.7c0-1.2,0.3-2.3,0.9-3.3C167,96,167.8,99,169.2,101.7z"/>
		<path d="M168.7,266.1c-0.1,6.2-1.8,11.1-3.9,11.1c-1.9,0-3.5-4.1-3.8-9.5C163.6,267.3,166.2,266.8,168.7,266.1z"/>
		<path class="st4" d="M162.1,105.6c0,0,0.9,3.4-2,7.8c-1.5-0.2-2.9-0.4-4.4-0.5c-1.5-2.2-2.9-4.6-3.9-7.1L162.1,105.6z"/>
		<path class="st4" d="M160.1,113.5c-0.5,0.8-1.2,1.7-2,2.6c-0.8-1-1.6-2-2.4-3.1C157.2,113.1,158.6,113.3,160.1,113.5z"/>
		<path class="st4" d="M155.7,112.9c0.7,1.1,1.5,2.1,2.4,3.1c-1.9,2-4.6,4.1-8.5,6.1c0,0-3.9-1.5-7.4-5.1c1.1-1.4,2.1-2.9,3-4.5
			c0.8,0,1.6,0,2.5,0C150.3,112.6,153,112.7,155.7,112.9z"/>
		<path class="st4" d="M151.8,105.8c1.1,2.5,2.4,4.9,3.9,7.1c-2.7-0.3-5.4-0.4-8.1-0.4c-0.8,0-1.7,0-2.5,0c1.2-2.1,2.3-4.4,3.1-6.7
			L151.8,105.8z"/>
		<path class="st3" d="M151.8,105.8l-3.6,0.1c0.7-1.8,1.2-3.8,1.6-5.7C150.3,102.1,151,104,151.8,105.8z"/>
		<path class="st1" d="M149.6,122.2l1.9,5.2c0,0-5.1,15-24,20.9c-8,2.5-18.4,3.3-32,0.8c0,0-5.1-1.5-11.5-5.7
			c3.5-4.4,7.4-8.5,11.8-12.1c4.2,1.5,8.8,2.3,13.5,2.3c13.4,0,25.4-6.4,32.9-16.3C145.7,120.7,149.6,122.2,149.6,122.2z"/>
		<path class="st2" d="M150.6,92c0,2.8-0.3,5.5-0.8,8.1c-0.9-3.4-1.4-7-1.4-10.7c0-2.8,0.3-5.5,0.8-8.2
			C150.1,84.7,150.6,88.3,150.6,92z"/>
		<path class="st2" d="M149.8,100.1c-0.4,2-0.9,3.9-1.6,5.7l-11.6,0.2c0.3,2.7,1.2,5,2.3,6.9c-16.4,1.7-31.3,8.2-43.2,18.1
			c-16.2-5.6-27.9-21-27.9-39.1c0-22.9,18.5-41.4,41.4-41.4c19.1,0,35.3,13,40,30.7c-0.5,2.6-0.8,5.4-0.8,8.2
			C148.4,93.1,148.9,96.7,149.8,100.1z M135.2,93.1c0-10.8-8.7-19.5-19.5-19.5c-10.8,0-19.5,8.7-19.5,19.5
			c0,10.8,8.7,19.5,19.5,19.5C126.4,112.6,135.2,103.8,135.2,93.1z"/>
		<path class="st4" d="M136.6,106.1l11.6-0.2c-0.8,2.3-1.9,4.6-3.1,6.7c-2.1,0.1-4.2,0.2-6.2,0.4
			C137.8,111.1,136.9,108.8,136.6,106.1z"/>
		<path class="st4" d="M145.1,112.6c-0.9,1.6-1.9,3.1-3,4.5c-1.1-1.2-2.3-2.5-3.2-4.1C141,112.8,143,112.7,145.1,112.6z"/>
		<path d="M140.6,265.7c0,1,0,1.9-0.1,2.8c-2.6-0.2-5.1-0.5-7.6-1c0-0.6-0.1-1.2-0.1-1.8c0-6.4,1.7-11.5,3.9-11.5
			S140.6,259.3,140.6,265.7z"/>
		<path d="M140.5,268.5c-0.4,5-1.9,8.7-3.8,8.7c-1.9,0-3.5-4.2-3.8-9.7C135.4,268,137.9,268.3,140.5,268.5z"/>
		<path class="st2" d="M138.9,113c0.9,1.6,2,2.9,3.2,4.1c-7.5,9.9-19.5,16.3-32.9,16.3c-4.7,0-9.3-0.8-13.5-2.3
			C107.6,121.2,122.5,114.7,138.9,113z"/>
		<circle cx="127.4" cy="96.4" r="6.3"/>
		<path d="M130.9,264.4c0,0.9,0,1.8-0.1,2.7c-2.6-0.5-5.1-1.2-7.6-2c0-0.2,0-0.5,0-0.8c0-6.4,1.7-11.5,3.9-11.5
			C129.2,252.9,130.9,258,130.9,264.4z"/>
		<path class="st3" d="M115.7,73.5c10.8,0,19.5,8.7,19.5,19.5c0,10.8-8.7,19.5-19.5,19.5c-10.8,0-19.5-8.7-19.5-19.5
			C96.2,82.3,104.9,73.5,115.7,73.5z M133.7,96.4c0-3.5-2.8-6.3-6.3-6.3s-6.3,2.8-6.3,6.3s2.8,6.3,6.3,6.3S133.7,99.9,133.7,96.4z"
			/>
		<path d="M130.8,267.1c-0.4,5.1-1.9,8.8-3.8,8.8c-2.1,0-3.7-4.8-3.9-10.8C125.7,265.9,128.2,266.6,130.8,267.1z"/>
		<path class="st1" d="M127.4,148.2L127.4,148.2c0,0-39.2,73.7-13.2,112.2c0,0.4-0.1,0.9-0.1,1.3c-27.6-12.3-46.8-39.5-46.8-71.1
			c0-17.9,6.2-34.3,16.5-47.5c6.5,4.2,11.5,5.7,11.5,5.7C109,151.6,119.4,150.7,127.4,148.2z"/>
		<path class="st2" d="M127.4,148.2l-10.6,103.3c-1.3,1.4-2.3,4.8-2.5,8.9C88.2,221.9,127.4,148.2,127.4,148.2z"/>
		<path d="M121.9,262.4c0,0.8,0,1.6-0.1,2.3c-2.1-0.7-4.2-1.5-6.2-2.3l1.1-10.9c0.4-0.4,0.8-0.7,1.3-0.7
			C120.2,250.9,121.9,256,121.9,262.4z"/>
		<path d="M121.9,264.7c-0.4,5.3-1.9,9.2-3.8,9.2c-2.1,0-3.9-5.2-3.9-11.5c0-0.2,0-0.4,0-0.6c0.5,0.2,1,0.4,1.5,0.6
			C117.7,263.2,119.8,264,121.9,264.7z"/>
		<path d="M116.8,251.5l-1.1,10.9c-0.5-0.6-1-1.3-1.4-2C114.5,256.3,115.5,252.9,116.8,251.5z"/>
		<path d="M115.7,262.4c-0.5-0.2-1-0.4-1.5-0.6c0-0.5,0-0.9,0.1-1.3C114.7,261.1,115.2,261.8,115.7,262.4z"/>
	</g>
	<g>
		<path class="st5" d="M114.2,261.8c-27.6-12.3-46.8-39.5-46.8-71.1c0-17.9,6.2-34.3,16.5-47.5"/>
		<path class="st5" d="M123.2,265.1c-0.4-0.1-0.9-0.3-1.3-0.4"/>
		<path class="st5" d="M132.9,267.5c-0.7-0.1-1.4-0.3-2.1-0.4"/>
		<path class="st5" d="M161,267.7c-4.4,0.7-8.9,1.1-13.4,1.1c-2.4,0-4.8-0.1-7.1-0.3"/>
		<path class="st5" d="M170.7,265.5c-0.7,0.2-1.3,0.4-1.9,0.5"/>
		<path class="st5" d="M179.6,262.4c-0.4,0.2-0.9,0.4-1.3,0.5"/>
		<path class="st5" d="M211.7,143.7c10.1,13.1,16.1,29.4,16.1,47c0,29.1-16.4,54.6-40.7,68"/>
		<path class="st6" d="M76.4,1.2c0.6,0.4,18.5,13.9,25.1,21.3c0,0,26-7.5,46.4,7.5"/>
		<path class="st6" d="M169.9,146.3c-7.5-3.2-14.5-8.9-18.5-19c0,0-5.1,15-24,20.9c-8,2.5-18.4,3.3-32,0.8c0,0-5.1-1.5-11.5-5.7
			c-16.8-10.9-42.9-40-12.6-107c0,0,12.1-17.5,5.1-35l0,0"/>
		<path class="st6" d="M219.9,1.2L219.9,1.2c-7,17.5,5.1,35.1,5.1,35.1c9.4,20.7,13.4,37.8,13.9,51.8c1.2,32-15.5,48.2-27.2,55.6
			c-6.1,3.8-10.8,5.3-10.8,5.3s-16.2,3.4-30.7-2.6"/>
		<path class="st6" d="M148.4,30c20.4-15,46.4-7.5,46.4-7.5c6.6-7.4,24.6-20.9,25.1-21.3"/>
		<path class="st6" d="M149.2,81.3c3.8-19.1,20.6-33.4,40.8-33.4c22.6,0,41,18,41.6,40.5c0,0.3,0,0.7,0,1.1
			c0,20.1-14.3,36.9-33.2,40.7c-2.7,0.6-5.5,0.8-8.4,0.8c-12.8,0-24.3-5.8-31.9-14.9"/>
		<path class="st6" d="M151.8,105.8c-0.8-1.8-1.4-3.7-2-5.7"/>
		<path class="st6" d="M167,92.8c0-0.1,0-0.2,0-0.3c0-11.1,9-20.2,20.2-20.2s20.2,9,20.2,20.2s-9,20.2-20.2,20.2
			c-7.8,0-14.6-4.4-17.9-10.9"/>
		<path class="st7" d="M167,92.8c1.1-2.1,3.4-3.5,5.9-3.5c3.7,0,6.8,3,6.8,6.8c0,3.7-3,6.8-6.8,6.8c-1.3,0-2.6-0.4-3.7-1.1
			c-1.9-1.2-3.1-3.3-3.1-5.7C166.1,94.9,166.4,93.8,167,92.8z"/>
		<path class="st6" d="M142.1,117.1c-7.5,9.9-19.5,16.3-32.9,16.3c-4.7,0-9.3-0.8-13.5-2.3c-16.2-5.6-27.9-21-27.9-39.1
			c0-22.9,18.5-41.4,41.4-41.4c19.1,0,35.3,13,40,30.7c0.9,3.4,1.4,7,1.4,10.7c0,2.8-0.3,5.5-0.8,8.1c-0.4,2-0.9,3.9-1.6,5.7"/>
		<path class="st6" d="M135.2,93.1c0,10.8-8.7,19.5-19.5,19.5c-10.8,0-19.5-8.7-19.5-19.5c0-10.8,8.7-19.5,19.5-19.5
			C126.4,73.5,135.2,82.3,135.2,93.1z"/>
		<circle class="st7" cx="127.4" cy="96.4" r="6.3"/>
		<path class="st6" d="M151.8,105.8l10.3-0.2c0,0,0.9,3.4-2,7.8c-0.5,0.8-1.2,1.7-2,2.6c-1.9,2-4.6,4.1-8.5,6.1c0,0-3.9-1.5-7.4-5.1
			c-1.1-1.2-2.3-2.5-3.2-4.1c-1.2-1.9-2-4.2-2.3-6.9l11.6-0.2L151.8,105.8z"/>
		<path class="st6" d="M127.4,148.2c0,0-39.2,73.7-13.2,112.2"/>
		<path class="st6" d="M169.9,145.7c0,0,0.1,0.2,0.4,0.7c3.7,7.3,34.5,69.6,15.6,106.7"/>
		<path class="st6" d="M185.8,253.1C185.8,253.1,185.8,253.1,185.8,253.1"/>
	</g>
</g>
<g>
</g>
<g>
</g>
<g>
</g>
<g>
</g>
<g>
</g>
<g>
</g>
</svg>
