<?xml version="1.0" encoding="utf-8"?>
<!-- Generator: Adobe Illustrator 18.1.0, SVG Export Plug-In . SVG Version: 6.00 Build 0)  -->
<svg version="1.1" id="Layer_1" xmlns="http://www.w3.org/2000/svg" xmlns:xlink="http://www.w3.org/1999/xlink" x="0px" y="0px"
	 viewBox="0 0 433 39.6" style="enable-background:new 0 0 433 39.6;" xml:space="preserve">
<style type="text/css">
	.st0{fill:none;stroke:#FFFFFF;stroke-width:0.75;stroke-miterlimit:10;}
</style>
<g>
	<line class="st0" x1="0.3" y1="0.4" x2="55" y2="38.3"/>
	<line class="st0" x1="0.8" y1="39" x2="32.1" y2="0.4"/>
	<line class="st0" x1="32.1" y1="0.4" x2="55" y2="38.3"/>
	<line class="st0" x1="20.4" y1="14.3" x2="110.7" y2="0.4"/>
	<line class="st0" x1="55" y1="38.3" x2="65.6" y2="7.3"/>
	<line class="st0" x1="20.4" y1="14.3" x2="139.7" y2="38.3"/>
	<line class="st0" x1="65.6" y1="7.3" x2="0.3" y2="39.2"/>
	<line class="st0" x1="32.1" y1="0.4" x2="65.6" y2="7.3"/>
	<line class="st0" x1="110.7" y1="0.4" x2="55" y2="38.3"/>
	<line class="st0" x1="65.6" y1="7.3" x2="139.7" y2="38.3"/>
	<line class="st0" x1="65.6" y1="7.3" x2="82.9" y2="38.3"/>
	<line class="st0" x1="82.9" y1="37.2" x2="110.7" y2="0.4"/>
	<line class="st0" x1="20.4" y1="14.3" x2="27.7" y2="38.3"/>
	<line class="st0" x1="110.7" y1="0.4" x2="139.7" y2="38.3"/>
	<line class="st0" x1="75.7" y1="25.4" x2="169.2" y2="0.4"/>
	<line class="st0" x1="120.3" y1="12.9" x2="82.9" y2="38.3"/>
	<line class="st0" x1="96.4" y1="19.3" x2="96.4" y2="19.3"/>
	<line class="st0" x1="139.7" y1="38.3" x2="169.2" y2="0.4"/>
	<line class="st0" x1="110.7" y1="0.4" x2="197.8" y2="38.3"/>
	<line class="st0" x1="95.9" y1="29.5" x2="267.1" y2="0.4"/>
	<line class="st0" x1="120.3" y1="12.9" x2="252.3" y2="38.3"/>
	<line class="st0" x1="169.2" y1="0.4" x2="197.8" y2="38.3"/>
	<line class="st0" x1="139.7" y1="38.3" x2="206.1" y2="0.4"/>
	<line class="st0" x1="169.2" y1="0.4" x2="164.8" y2="23.9"/>
	<line class="st0" x1="169.2" y1="0.4" x2="252.3" y2="38.3"/>
	<line class="st0" x1="206.1" y1="0.4" x2="197.8" y2="38.3"/>
	<line class="st0" x1="197.8" y1="38.3" x2="267.1" y2="0.4"/>
	<line class="st0" x1="206.1" y1="0.4" x2="222.6" y2="24.7"/>
	<line class="st0" x1="202.9" y1="14.9" x2="212" y2="30.5"/>
	<line class="st0" x1="180.2" y1="15.1" x2="252.3" y2="38.3"/>
	<line class="st0" x1="189.2" y1="9.5" x2="189.2" y2="9.5"/>
	<line class="st0" x1="164.8" y1="23.9" x2="266.5" y2="0.7"/>
	<line class="st0" x1="222.6" y1="24.7" x2="232.5" y2="0.4"/>
	<line class="st0" x1="206.1" y1="0.4" x2="227.9" y2="9.5"/>
	<line class="st0" x1="232.5" y1="0.4" x2="212" y2="30.5"/>
	<line class="st0" x1="202.8" y1="15.4" x2="288.5" y2="38.3"/>
	<line class="st0" x1="252.3" y1="38.3" x2="267.1" y2="0.4"/>
	<line class="st0" x1="232.5" y1="0.7" x2="255.7" y2="29.5"/>
	<line class="st0" x1="201.4" y1="21.9" x2="308.7" y2="0.4"/>
	<line class="st0" x1="267.1" y1="0.7" x2="288.5" y2="38.3"/>
	<line class="st0" x1="197" y1="38.3" x2="255.7" y2="29.5"/>
	<line class="st0" x1="227.9" y1="21.8" x2="227.9" y2="33.6"/>
	<line class="st0" x1="308.7" y1="0.4" x2="255.7" y2="29.5"/>
	<line class="st0" x1="243.3" y1="13.9" x2="288.5" y2="38.3"/>
	<line class="st0" x1="227.9" y1="27.2" x2="287.8" y2="0.4"/>
	<line class="st0" x1="287.8" y1="0.4" x2="288.5" y2="38.3"/>
	<line class="st0" x1="263.9" y1="25" x2="328.5" y2="38.3"/>
	<line class="st0" x1="328.5" y1="38.3" x2="287.8" y2="0.4"/>
	<line class="st0" x1="308.7" y1="0.4" x2="288.5" y2="38.3"/>
	<line class="st0" x1="263.1" y1="25.4" x2="301.7" y2="13.4"/>
	<line class="st0" x1="252.3" y1="38.3" x2="328.5" y2="0.4"/>
	<line class="st0" x1="328.5" y1="0.4" x2="328.5" y2="38.3"/>
	<line class="st0" x1="287.8" y1="11.9" x2="328.5" y2="38.3"/>
	<line class="st0" x1="308.7" y1="0.4" x2="356.9" y2="38.3"/>
	<line class="st0" x1="288.5" y1="38.3" x2="358.5" y2="0.4"/>
	<line class="st0" x1="298.8" y1="19" x2="358.5" y2="0.4"/>
	<line class="st0" x1="309.1" y1="0.7" x2="388.5" y2="38.3"/>
	<line class="st0" x1="356.9" y1="38.3" x2="305.5" y2="16.9"/>
	<line class="st0" x1="328.5" y1="38.3" x2="358.5" y2="0.4"/>
	<line class="st0" x1="328.5" y1="0.4" x2="356.9" y2="38.3"/>
	<line class="st0" x1="329.5" y1="26.9" x2="374.1" y2="0.7"/>
	<line class="st0" x1="356.9" y1="38.3" x2="374.6" y2="0.4"/>
	<line class="st0" x1="358.5" y1="0.4" x2="388.5" y2="38.3"/>
	<line class="st0" x1="328.5" y1="38.3" x2="432.6" y2="0.4"/>
	<line class="st0" x1="356.9" y1="38.3" x2="432.6" y2="0.4"/>
	<line class="st0" x1="388.5" y1="38.3" x2="374.6" y2="0.4"/>
	<line class="st0" x1="432.6" y1="0.4" x2="388.5" y2="38.3"/>
	<line class="st0" x1="374.6" y1="0.4" x2="428.5" y2="38.3"/>
	<line class="st0" x1="388.5" y1="37.2" x2="397.1" y2="0.7"/>
	<line class="st0" x1="374.6" y1="20.6" x2="412.8" y2="38.3"/>
	<line class="st0" x1="397.1" y1="0.7" x2="412.8" y2="38.3"/>
	<line class="st0" x1="397.1" y1="0.7" x2="428.5" y2="38.3"/>
	<line class="st0" x1="432.6" y1="0.4" x2="428.5" y2="38.3"/>
	<line class="st0" x1="0.3" y1="0.4" x2="27.7" y2="38.3"/>
</g>
<g>
</g>
<g>
</g>
<g>
</g>
<g>
</g>
<g>
</g>
<g>
</g>
</svg>
